<svg width="554" height="294" viewBox="0 0 554 294" fill="none" xmlns="http://www.w3.org/2000/svg">
<path d="M318.136 154.493C328.595 160.532 338.978 167.787 350.373 172.056C352.724 172.936 354.797 173.561 356.984 174.823C357.386 175.055 358.948 175.976 357.572 175.582C355.82 175.081 354.221 174.343 352.444 173.881C346.682 172.383 341.214 170.114 335.23 169.4C330.081 168.786 325.079 169.133 320.081 170.473C318.472 170.904 317.41 171.546 315.665 171.538C313.945 171.53 319.266 167.003 319.756 166.553C325.17 161.582 330.397 155.625 334.902 149.853C337.511 146.509 341.141 144.041 343.406 140.536C344.872 138.266 344.663 143.884 344.692 144.124C345.897 154.122 341.382 163.105 339.435 172.621C338.561 176.891 337.25 180.997 335.932 185.151C335.301 187.139 335.21 189.139 334.668 191.138C334.496 191.769 335.382 194.399 335.308 192.534C335.247 190.994 334.441 189.281 334.222 187.709C333.842 184.984 333.363 182.03 332.475 179.424C330.101 172.455 326.389 165.745 323.216 159.105C322.149 156.873 321.816 155.358 319.626 154.094" stroke="#F9A825" stroke-width="2" stroke-linecap="round"/>
<path d="M501.491 88.1037C511.95 94.1422 522.333 101.397 533.728 105.666C536.079 106.547 538.153 107.171 540.34 108.434C540.741 108.666 542.303 109.587 540.928 109.193C539.176 108.692 537.577 107.954 535.799 107.492C530.038 105.993 524.57 103.725 518.586 103.011C513.437 102.397 508.435 102.744 503.437 104.083C501.828 104.514 500.765 105.156 499.02 105.148C497.301 105.141 502.621 100.613 503.111 100.164C508.526 95.1929 513.753 89.2352 518.257 83.4635C520.866 80.12 524.497 77.6518 526.761 74.1468C528.228 71.8764 528.019 77.4943 528.048 77.735C529.252 87.733 524.738 96.7154 522.79 106.231C521.916 110.502 520.605 114.608 519.287 118.762C518.657 120.75 518.565 122.75 518.023 124.749C517.852 125.38 518.737 128.009 518.663 126.145C518.602 124.605 517.796 122.891 517.577 121.32C517.198 118.595 516.718 115.64 515.831 113.035C513.456 106.065 509.744 99.356 506.571 92.7159C505.505 90.4837 505.171 88.9688 502.981 87.7045" stroke="#F9A825" stroke-width="2" stroke-linecap="round"/>
<path d="M139.491 22.104C149.95 28.1425 160.333 35.3974 171.728 39.6664C174.079 40.5472 176.153 41.1714 178.34 42.4341C178.741 42.6659 180.303 43.5868 178.928 43.1933C177.176 42.6922 175.577 41.9541 173.799 41.4919C168.038 39.9935 162.57 37.7248 156.586 37.0111C151.437 36.3969 146.435 36.7443 141.437 38.0835C139.828 38.5147 138.765 39.1564 137.02 39.1486C135.301 39.1409 140.621 34.6137 141.111 34.1639C146.526 29.1932 151.753 23.2355 156.257 17.4637C158.866 14.1202 162.497 11.6521 164.761 8.14706C166.228 5.8766 166.019 11.4945 166.048 11.7353C167.252 21.7333 162.738 30.7156 160.79 40.2315C159.916 44.5021 158.605 48.6081 157.287 52.7621C156.657 54.7498 156.565 56.7503 156.023 58.749C155.852 59.3799 156.737 62.0094 156.663 60.1448C156.602 58.605 155.796 56.8917 155.577 55.3199C155.198 52.5951 154.718 49.6407 153.831 47.0348C151.456 40.0656 147.744 33.3562 144.571 26.7162C143.505 24.484 143.171 22.9691 140.981 21.7047" stroke="#F9A825" stroke-width="2" stroke-linecap="round"/>
<path d="M164.759 238.817C164.759 238.817 174.212 250.923 177.364 256.234C180.029 260.725 182.831 268.382 187.643 271.06C191.112 272.99 193.914 275.76 196.797 278.318C200.009 281.169 197.815 279.637 196.018 277.154C188.557 266.841 173.159 262.997 161.424 259.579C160.034 259.174 152.082 256.881 153.347 257.875C154.264 258.595 155.741 257.916 156.715 257.933C158.493 257.963 159.987 259.564 162.106 259.725C167.143 260.108 188.675 257.513 190.229 250.491C191.035 246.85 180.62 258.179 177.685 260.48C172.81 264.301 171.711 270.028 169.122 274.992C167.523 278.057 166.92 279.15 168.412 275.249C170.172 270.651 172.143 265.875 172.929 260.979C174.107 253.632 159.452 231.388 164.759 238.817Z" stroke="#F9A825" stroke-width="2" stroke-linecap="round"/>
<path d="M27.7276 125.597C29.2144 132.483 30.1437 140.43 33.563 146.756C34.437 148.373 36.4466 149.004 36.7205 150.802C37.2 153.951 42.285 153.498 42.7645 156.647C43.0345 158.419 46.0749 165.473 47.2407 167.472C56.2158 182.858 39.8815 168.296 35.3911 165.339C32.1335 163.194 8.7376 152.436 9.56726 149.122C11.8933 139.83 34.4861 144.618 41.4743 143.475C46.6958 142.621 53.3117 141.963 58.5893 143.284C64.9825 144.885 56.2651 144.208 52.452 145.758C46.9083 148.012 41.5872 150.942 37.1229 155.09C33.6574 158.31 28.772 168.951 24.8299 170.491C23.4447 171.032 15.6879 176.574 16.2844 174.191C17.5634 169.082 22.6039 165.081 24.1879 160.048C25.7934 154.948 27.8308 150.312 26.2343 145.402C24.4753 139.993 25.3738 137.83 28.2008 132.934" stroke="#F9A825" stroke-width="2" stroke-linecap="round"/>
</svg>
