<svg width="100" height="100" viewBox="0 0 100 100" fill="none" xmlns="http://www.w3.org/2000/svg">
<path d="M35.4168 89.5832L50.0002 74.9999L64.5835 89.5832M50.0002 8.33325V16.6666M37.5002 49.9999V58.3333M50.0002 41.6666V58.3333M62.5002 33.3333V58.3333M91.6668 19.1666V72.4999C91.6668 72.8282 91.6022 73.1533 91.4765 73.4566C91.3509 73.7599 91.1668 74.0355 90.9346 74.2677C90.7025 74.4998 90.4269 74.684 90.1235 74.8096C89.8202 74.9353 89.4951 74.9999 89.1668 74.9999H10.8335C10.1705 74.9999 9.53457 74.7365 9.06573 74.2677C8.59689 73.7988 8.3335 73.163 8.3335 72.4999V19.1666C8.3335 18.5035 8.59689 17.8677 9.06573 17.3988C9.53457 16.93 10.1705 16.6666 10.8335 16.6666H89.1668C89.8299 16.6666 90.4658 16.93 90.9346 17.3988C91.4034 17.8677 91.6668 18.5035 91.6668 19.1666Z" stroke="#1C1C1C" stroke-width="9.16667" stroke-linecap="round" stroke-linejoin="round"/>
</svg>
