<svg width="1290" height="614" viewBox="0 0 1290 614" fill="none" xmlns="http://www.w3.org/2000/svg">
<path opacity="0.1" d="M1228.66 449.161C1222.8 460.489 1214.55 470.405 1204.48 478.223C1203.05 479.371 1201.59 480.477 1200.11 481.561C1198.11 482.965 1196.06 484.345 1193.97 485.699C1177.68 496.05 1158.6 503.126 1139.98 508.286C1134.91 509.69 1129.82 511.01 1124.7 512.245C1120.39 513.291 1116.08 514.267 1111.76 515.172C1110.12 515.53 1108.48 515.867 1106.84 516.225C1105.2 516.583 1103.32 516.931 1101.58 517.278L1099.09 517.752C1050.91 526.65 1002.1 528.345 952.937 526.113L950.602 525.997L946.87 525.807C936.888 525.288 926.895 524.625 916.892 523.817L913.107 523.512L911.435 523.375C905.827 522.905 900.219 522.389 894.612 521.827C887.223 521.125 879.824 520.349 872.415 519.5L871.458 519.395L870.68 519.3C844.236 516.32 817.728 512.74 791.189 509.065L787.435 508.539L780.695 507.601L775.017 506.812L773.335 506.58C764.376 505.323 755.418 504.081 746.459 502.852L745.008 502.652C728.185 500.346 711.267 498.125 694.401 496.103L692.203 495.84C685.299 495.018 678.398 494.236 671.5 493.491L666.243 492.933L659.25 492.228C639.872 490.301 620.504 488.764 601.178 487.805C591.883 487.342 582.567 486.991 573.229 486.752C565.519 486.577 557.808 486.475 550.097 486.447C539.639 486.398 529.159 486.458 518.658 486.626H516.282C501.488 486.868 486.662 487.289 471.826 487.795L469.155 487.879H468.272C436.728 488.995 405.183 490.48 373.723 491.543L366.037 491.796H364.923C353.987 492.147 343.063 492.417 332.148 492.607H329.257H329.162H325.65L320.771 492.67C315.703 492.719 310.646 492.747 305.599 492.754H299.405C280.879 492.702 262.425 492.291 244.088 491.333L242.048 491.217C206.413 489.29 171.179 485.31 136.575 478.076C132.993 477.325 129.418 476.539 125.85 475.717C101.938 470.348 78.4604 463.2 55.6115 454.331C44.8444 450.119 34.0143 445.255 25.8233 437.02C5.04626 415.961 12.8482 374.716 39.8815 362.722C61.0266 353.34 85.7992 360.974 108.543 356.741C109.94 356.475 111.32 356.123 112.675 355.688C115.566 354.755 118.379 353.593 121.087 352.214C122.012 351.75 122.937 351.255 123.873 350.739C125.976 349.592 128.079 348.318 130.098 346.928C133.398 344.729 136.559 342.327 139.561 339.736C140.893 338.598 142.19 337.419 143.451 336.198C147.818 332.09 151.673 327.469 154.933 322.435C156.12 320.531 157.174 318.547 158.088 316.497C158.582 315.444 159.024 314.306 159.392 313.211C159.941 311.627 160.36 310 160.643 308.346C161.968 300.533 159.823 292.91 152.357 286.466C151.689 285.894 150.986 285.363 150.254 284.876C148.808 283.871 147.282 282.987 145.691 282.233C145.05 281.927 144.387 281.632 143.714 281.348C134.104 277.294 121.707 275.736 111.255 272.924C108.07 272.116 104.96 271.034 101.96 269.692C100.057 268.807 98.1645 267.881 96.3034 266.912L95.8092 266.638C79.9172 258.433 65.9413 246.949 54.8019 232.943C52.0327 229.403 49.4833 225.697 47.1682 221.844C46.4637 220.686 45.7802 219.496 45.1283 218.306C26.654 184.927 24.7508 142.155 43.9717 109.334C46.3067 105.352 48.9062 101.531 51.7526 97.8984C52.6779 96.698 53.6347 95.5187 54.6231 94.3604C72.9187 72.7428 99.2055 58.0959 125.745 47.2502C161.368 32.6981 198.664 23.5056 236.675 17.451C244.386 16.2225 252.096 15.1204 259.807 14.1446C292.087 10.017 324.746 7.82676 357.173 6.16305C387.505 4.62571 417.969 3.63239 448.567 3.18312C458.935 3.04273 469.313 2.98306 479.701 3.00412C503.107 3.00412 526.513 3.45689 549.918 4.36245C557.629 4.65729 565.34 5.00828 573.051 5.41543C592.825 6.44033 612.562 7.8443 632.259 9.62734C641.722 10.4838 651.165 11.4279 660.586 12.4599C732.338 20.3151 803.049 33.6352 871.321 54.3473C879.067 56.6919 886.778 59.1489 894.454 61.7181C923.164 71.1843 951.377 82.1037 978.982 94.4341C981.589 95.6064 984.19 96.7858 986.783 97.9721C1004.02 105.891 1021.01 114.423 1037.76 123.57C1059.86 135.481 1081.15 148.848 1101.48 163.583C1109.41 169.41 1117.12 175.489 1124.61 181.821C1137.84 192.999 1150.19 205.194 1161.53 218.296C1162.54 219.468 1163.54 220.648 1164.52 221.834C1169.66 228.004 1174.53 234.396 1179.14 241.009C1201.64 273.398 1216.74 310.442 1227.89 348.286C1237.72 381.307 1244.26 418.383 1228.66 449.161Z" fill="#2F80ED"/>
<path opacity="0.1" d="M1214.31 335.725H1124.49V221.484H1164.44C1163.45 220.3 1162.45 219.122 1161.44 217.952H1124.53V181.536C1117.06 175.229 1109.35 169.159 1101.4 163.328V217.994H894.337V97.8135H986.656C984.056 96.6291 981.456 95.4517 978.855 94.2813H894.337V61.6185C886.627 59.0745 878.917 56.6215 871.207 54.2597V94.2077H575.692L574.988 93.5349L660.474 12.3983C651.053 11.3611 641.612 10.4184 632.15 9.5704L572.948 65.75V5.4074C565.238 5.00092 557.528 4.65049 549.818 4.35614V69.6291L479.609 3C469.229 3 458.852 3.05957 448.478 3.17871L543.689 93.5349L542.985 94.2077H259.718V14.238C252.008 15.2122 244.298 16.3125 236.588 17.539V94.2813H54.5358C53.5475 95.4377 52.5908 96.6151 51.6656 97.8135H236.567V217.952H45C45.6518 219.14 46.3352 220.328 47.0396 221.484H236.567V335.725H143.344C142.082 336.945 140.785 338.122 139.454 339.257H236.567V456.158C244.277 457.258 251.987 458.408 259.697 459.606V339.257H549.797V485.73C557.507 485.73 565.217 485.832 572.927 486.035V339.257H871.186V518.572L872.143 518.677C879.544 519.504 886.942 520.278 894.337 521V339.257H1101.34V516.459C1103.1 516.133 1104.87 515.786 1106.59 515.407C1108.32 515.029 1109.88 514.745 1111.52 514.356C1115.83 513.438 1120.15 512.464 1124.46 511.434V339.257H1215C1214.77 338.08 1214.54 336.903 1214.31 335.725ZM549.797 335.725H259.718V221.484H549.797V335.725ZM549.797 217.984H259.718V97.8135H545.687L549.766 101.03L549.797 217.984ZM871.186 335.725H572.948V221.484H871.186V335.725ZM871.186 217.984H572.948V97.8135H871.186V217.984ZM1101.34 335.725H894.337V221.484H1101.34V335.725Z" fill="#2F80ED"/>
<ellipse cx="969" cy="591.5" rx="146" ry="15.5" fill="#EFEFEF"/>
<ellipse cx="118.5" cy="595.5" rx="58.5" ry="6.5" fill="#EFEFEF"/>
<path d="M330.436 499.893C334.264 499.893 337.368 496.785 337.368 492.952C337.368 489.118 334.264 486.01 330.436 486.01C326.607 486.01 323.504 489.118 323.504 492.952C323.504 496.785 326.607 499.893 330.436 499.893Z" fill="#333F4F"/>
<path d="M302.803 464.462C306.632 464.462 309.735 461.354 309.735 457.52C309.735 453.686 306.632 450.578 302.803 450.578C298.974 450.578 295.871 453.686 295.871 457.52C295.871 461.354 298.974 464.462 302.803 464.462Z" fill="#333F4F"/>
<path d="M389.702 338.281H381.021V392.595H389.702V338.281Z" fill="#333F4F"/>
<path opacity="0.1" d="M389.702 383.807H381.021V392.604H389.702V383.807Z" fill="#333F4F"/>
<path d="M393.5 146C377.76 146 365 133.24 365 117.5C365 101.76 377.76 89 393.5 89C409.24 89 422 101.76 422 117.5C422 133.24 409.24 146 393.5 146Z" fill="#171717"/>
<path opacity="0.1" d="M381.028 338.281V344.136C382.539 344.195 384.087 344.225 385.672 344.225C387.037 344.225 388.381 344.225 389.702 344.158V338.281H381.028Z" fill="#333F4F"/>
<path d="M385.672 342.163C403.363 342.163 417.704 337.963 417.704 332.782C417.704 327.601 403.363 323.4 385.672 323.4C367.98 323.4 353.639 327.601 353.639 332.782C353.639 337.963 367.98 342.163 385.672 342.163Z" fill="#333F4F"/>
<path d="M353.919 332.775C353.949 333.297 354.086 333.807 354.321 334.273C354.556 334.74 354.884 335.153 355.285 335.488C355.603 335.795 355.943 336.076 356.304 336.331C361.073 339.746 372.545 342.156 385.945 342.156C399.344 342.156 410.912 339.724 415.659 336.279C415.896 336.115 416.123 335.937 416.338 335.747C416.81 335.403 417.202 334.96 417.486 334.449C417.77 333.939 417.941 333.372 417.985 332.79C417.985 327.615 403.648 323.408 385.945 323.408C368.241 323.408 353.919 327.592 353.919 332.775Z" fill="#333F4F"/>
<path opacity="0.1" d="M353.919 332.775C353.949 333.297 354.086 333.807 354.321 334.273C354.556 334.74 354.884 335.153 355.285 335.488C355.603 335.795 355.943 336.076 356.304 336.331C361.073 339.746 372.545 342.156 385.945 342.156C399.344 342.156 410.912 339.724 415.659 336.279C415.896 336.115 416.123 335.937 416.338 335.747C416.81 335.403 417.202 334.96 417.486 334.449C417.77 333.939 417.941 333.372 417.985 332.79C417.985 327.615 403.648 323.408 385.945 323.408C368.241 323.408 353.919 327.592 353.919 332.775Z" fill="#333F4F"/>
<path opacity="0.1" d="M353.646 332.775C353.676 333.297 353.812 333.807 354.047 334.274C354.282 334.74 354.611 335.154 355.012 335.488C359.095 334.475 361.915 333.625 361.915 333.625C361.915 333.625 390.145 335.207 416.065 335.747C416.537 335.403 416.929 334.96 417.214 334.45C417.498 333.939 417.668 333.372 417.712 332.79C417.712 327.615 403.375 323.408 385.672 323.408C367.968 323.408 353.646 327.592 353.646 332.775Z" fill="#333F4F"/>
<path opacity="0.1" d="M331.499 313.391C334.971 318.389 339.6 322.472 344.991 325.289C350.381 328.106 356.373 329.573 362.454 329.566H412.743C418.537 329.57 424.235 328.085 429.292 325.253C434.349 322.421 438.595 318.337 441.624 313.391H331.499Z" fill="#333F4F"/>
<path opacity="0.1" d="M353.919 332.775C353.949 333.297 354.086 333.807 354.321 334.273C354.556 334.74 354.884 335.153 355.285 335.488C355.603 335.795 355.943 336.076 356.304 336.331C376.071 337.533 395.894 337.516 415.659 336.279C415.896 336.115 416.123 335.937 416.338 335.747C416.81 335.402 417.202 334.96 417.486 334.449C417.77 333.939 417.941 333.372 417.985 332.79C417.985 327.615 403.648 323.408 385.945 323.408C368.241 323.408 353.919 327.592 353.919 332.775Z" fill="#333F4F"/>
<path d="M325.128 331.917C365.517 337.025 406.387 337.025 446.777 331.917C447.897 331.922 449.008 331.705 450.045 331.278C451.082 330.852 452.025 330.225 452.819 329.433C453.614 328.641 454.244 327.7 454.674 326.663C455.104 325.627 455.325 324.515 455.325 323.393C455.325 321.132 454.429 318.964 452.832 317.366C451.236 315.767 449.071 314.869 446.813 314.869H325.128C322.87 314.869 320.705 315.767 319.109 317.366C317.512 318.964 316.616 321.132 316.616 323.393C316.616 325.654 317.512 327.822 319.109 329.42C320.705 331.019 322.87 331.917 325.128 331.917Z" fill="#333F4F"/>
<path d="M395 264.95C395 264.95 445.133 247.131 445.5 256C445.867 264.869 449 308.5 449 308.5L360 316.135L361.85 266.684L366.853 251L395 264.95Z" fill="#292929"/>
<path opacity="0.1" d="M380.238 142.821C380.46 143.079 380.688 143.323 380.917 143.56C385.184 148.088 391.008 150.826 397.212 151.221C403.417 151.616 409.54 149.639 414.345 145.689C414.065 140.263 414.116 136.042 414.116 136.042C414.116 136.042 377.477 122.92 380.755 131.939C381.943 135.228 381.404 139.154 380.238 142.821Z" fill="black"/>
<mask id="path-20-inside-1_53_481" fill="white">
<path fill-rule="evenodd" clip-rule="evenodd" d="M378.348 139.527C375.649 135.485 374.208 130.732 374.207 125.869C374.186 122.634 374.807 119.426 376.034 116.433C377.261 113.439 379.07 110.72 381.355 108.432C383.639 106.144 386.355 104.333 389.345 103.104C392.334 101.875 395.537 101.253 398.768 101.274C403.624 101.275 408.37 102.719 412.407 105.421C416.444 108.123 419.59 111.963 421.447 116.456C423.305 120.949 423.79 125.892 422.843 130.661C421.895 135.43 419.557 139.81 416.123 143.248C415.548 143.824 414.947 144.37 414.321 144.883C414.333 145.158 414.346 145.437 414.36 145.719C414.626 151.197 415.238 157.895 416.575 162.722C419.232 172.333 403.072 186.911 402.452 187.118C401.832 187.325 376.658 177.278 376.658 177.278L374.207 154.938C376.754 151.193 378.787 147.123 380.253 142.836C380.317 142.635 380.379 142.433 380.439 142.231C379.683 141.383 378.984 140.48 378.348 139.527Z"/>
</mask>
<path fill-rule="evenodd" clip-rule="evenodd" d="M378.348 139.527C375.649 135.485 374.208 130.732 374.207 125.869C374.186 122.634 374.807 119.426 376.034 116.433C377.261 113.439 379.07 110.72 381.355 108.432C383.639 106.144 386.355 104.333 389.345 103.104C392.334 101.875 395.537 101.253 398.768 101.274C403.624 101.275 408.37 102.719 412.407 105.421C416.444 108.123 419.59 111.963 421.447 116.456C423.305 120.949 423.79 125.892 422.843 130.661C421.895 135.43 419.557 139.81 416.123 143.248C415.548 143.824 414.947 144.37 414.321 144.883C414.333 145.158 414.346 145.437 414.36 145.719C414.626 151.197 415.238 157.895 416.575 162.722C419.232 172.333 403.072 186.911 402.452 187.118C401.832 187.325 376.658 177.278 376.658 177.278L374.207 154.938C376.754 151.193 378.787 147.123 380.253 142.836C380.317 142.635 380.379 142.433 380.439 142.231C379.683 141.383 378.984 140.48 378.348 139.527Z" fill="white"/>
<path d="M374.207 125.869L375.207 125.869L375.207 125.863L374.207 125.869ZM378.348 139.527L377.516 140.082H377.516L378.348 139.527ZM376.034 116.433L376.96 116.812L376.034 116.433ZM381.355 108.432L382.062 109.138L381.355 108.432ZM389.345 103.104L388.964 102.179V102.179L389.345 103.104ZM398.768 101.274L398.762 102.274L398.768 102.274L398.768 101.274ZM412.407 105.421L411.851 106.252L412.407 105.421ZM421.447 116.456L420.523 116.838V116.838L421.447 116.456ZM422.843 130.661L421.862 130.466L422.843 130.661ZM416.123 143.248L416.831 143.955L416.123 143.248ZM414.321 144.883L413.687 144.109L413.3 144.427L413.322 144.927L414.321 144.883ZM414.36 145.719L413.361 145.767L414.36 145.719ZM416.575 162.722L417.539 162.456L417.538 162.455L416.575 162.722ZM402.452 187.118L402.769 188.067L402.769 188.067L402.452 187.118ZM376.658 177.278L375.663 177.387L375.729 177.985L376.287 178.207L376.658 177.278ZM374.207 154.938L373.38 154.375L373.172 154.68L373.212 155.047L374.207 154.938ZM380.253 142.836L381.199 143.159L381.202 143.149L381.206 143.139L380.253 142.836ZM380.439 142.231L381.397 142.515L381.556 141.982L381.185 141.566L380.439 142.231ZM373.207 125.87C373.208 130.93 374.708 135.876 377.516 140.082L379.179 138.972C376.591 135.094 375.208 130.534 375.207 125.869L373.207 125.87ZM375.109 116.054C373.832 119.169 373.185 122.508 373.207 125.876L375.207 125.863C375.187 122.76 375.783 119.683 376.96 116.812L375.109 116.054ZM380.647 107.725C378.269 110.107 376.386 112.938 375.109 116.054L376.96 116.812C378.136 113.941 379.871 111.333 382.062 109.138L380.647 107.725ZM388.964 102.179C385.852 103.458 383.025 105.343 380.647 107.725L382.062 109.138C384.253 106.944 386.858 105.207 389.725 104.029L388.964 102.179ZM398.775 100.274C395.411 100.252 392.076 100.9 388.964 102.179L389.725 104.029C392.591 102.851 395.663 102.254 398.762 102.274L398.775 100.274ZM412.963 104.59C408.762 101.777 403.822 100.275 398.768 100.274L398.768 102.274C403.426 102.275 407.978 103.66 411.851 106.252L412.963 104.59ZM422.371 116.074C420.438 111.399 417.164 107.402 412.963 104.59L411.851 106.252C415.723 108.844 418.741 112.528 420.523 116.838L422.371 116.074ZM423.824 130.856C424.81 125.893 424.304 120.749 422.371 116.074L420.523 116.838C422.305 121.148 422.771 125.891 421.862 130.466L423.824 130.856ZM416.831 143.955C420.404 140.377 422.837 135.818 423.824 130.856L421.862 130.466C420.953 135.041 418.709 139.243 415.416 142.542L416.831 143.955ZM414.955 145.656C415.606 145.122 416.232 144.554 416.831 143.955L415.416 142.542C414.864 143.094 414.287 143.617 413.687 144.109L414.955 145.656ZM415.359 145.671C415.345 145.39 415.332 145.112 415.32 144.838L413.322 144.927C413.334 145.203 413.347 145.484 413.361 145.767L415.359 145.671ZM417.538 162.455C416.234 157.742 415.624 151.139 415.359 145.671L413.361 145.767C413.627 151.255 414.243 158.047 415.611 162.989L417.538 162.455ZM402.769 188.067C402.947 188.007 403.096 187.899 403.127 187.877C403.199 187.827 403.28 187.766 403.364 187.699C403.534 187.564 403.752 187.38 404.007 187.155C404.52 186.703 405.206 186.066 405.998 185.281C407.581 183.712 409.607 181.538 411.532 179.06C413.453 176.588 415.3 173.781 416.497 170.949C417.689 168.131 418.289 165.169 417.539 162.456L415.611 162.989C416.189 165.081 415.766 167.545 414.655 170.17C413.551 172.781 411.817 175.433 409.953 177.833C408.093 180.227 406.128 182.337 404.59 183.86C403.822 184.621 403.164 185.232 402.685 185.654C402.444 185.866 402.254 186.026 402.12 186.132C402.052 186.186 402.008 186.22 401.983 186.237C401.916 186.283 401.996 186.216 402.135 186.17L402.769 188.067ZM376.658 177.278C376.287 178.207 376.287 178.207 376.287 178.207C376.287 178.207 376.288 178.208 376.288 178.208C376.289 178.208 376.29 178.208 376.291 178.209C376.295 178.21 376.299 178.212 376.305 178.215C376.317 178.219 376.335 178.227 376.359 178.236C376.407 178.255 376.478 178.283 376.57 178.32C376.755 178.394 377.026 178.502 377.371 178.639C378.061 178.913 379.047 179.305 380.232 179.775C382.603 180.714 385.771 181.964 388.959 183.207C392.145 184.451 395.356 185.689 397.811 186.605C399.037 187.062 400.081 187.442 400.843 187.701C401.222 187.83 401.543 187.934 401.786 188.003C401.906 188.037 402.025 188.068 402.131 188.089C402.182 188.099 402.251 188.111 402.326 188.117C402.363 188.12 402.554 188.138 402.769 188.067L402.135 186.17C402.251 186.131 402.345 186.124 402.385 186.122C402.432 186.12 402.467 186.122 402.484 186.123C402.516 186.126 402.53 186.13 402.516 186.127C402.491 186.122 402.433 186.108 402.334 186.08C402.14 186.025 401.857 185.934 401.488 185.808C400.754 185.558 399.731 185.187 398.509 184.731C396.069 183.821 392.87 182.587 389.686 181.344C386.502 180.102 383.338 178.854 380.969 177.915C379.785 177.446 378.799 177.055 378.11 176.781C377.765 176.643 377.495 176.536 377.311 176.462C377.218 176.426 377.148 176.397 377.1 176.378C377.076 176.369 377.058 176.362 377.046 176.357C377.04 176.354 377.036 176.353 377.033 176.351C377.031 176.351 377.03 176.35 377.029 176.35C377.029 176.35 377.029 176.35 377.028 176.35C377.028 176.35 377.028 176.35 376.658 177.278ZM373.212 155.047L375.663 177.387L377.652 177.169L375.201 154.829L373.212 155.047ZM379.307 142.512C377.87 146.715 375.877 150.704 373.38 154.375L375.033 155.5C377.631 151.681 379.705 147.531 381.199 143.159L379.307 142.512ZM379.48 141.947C379.422 142.143 379.362 142.338 379.3 142.533L381.206 143.139C381.272 142.932 381.336 142.724 381.397 142.515L379.48 141.947ZM377.516 140.082C378.178 141.074 378.905 142.013 379.692 142.896L381.185 141.566C380.46 140.752 379.79 139.886 379.179 138.972L377.516 140.082Z" fill="black" mask="url(#path-20-inside-1_53_481)"/>
<path d="M483.853 277.431L483.871 277.501L483.909 277.562L483.909 277.562L483.909 277.562L483.91 277.564L483.916 277.573L483.938 277.611C483.958 277.644 483.988 277.695 484.027 277.761C484.104 277.894 484.217 278.09 484.358 278.343C484.638 278.849 485.027 279.58 485.459 280.476C486.325 282.271 487.358 284.718 488.041 287.342C488.725 289.972 489.046 292.739 488.528 295.194C488.015 297.626 486.677 299.764 483.992 301.187C482.666 301.89 481.472 302.046 480.387 301.82C479.294 301.592 478.261 300.965 477.287 300.014C475.329 298.101 473.703 294.967 472.405 291.578C471.114 288.203 470.17 284.636 469.548 281.906C469.238 280.543 469.009 279.391 468.857 278.581C468.782 278.177 468.725 277.857 468.688 277.639C468.669 277.531 468.655 277.447 468.646 277.391L468.636 277.328L468.633 277.313L468.633 277.309L468.633 277.308C468.633 277.308 468.633 277.308 468.139 277.386L468.633 277.308L468.621 277.233L468.587 277.165L466.529 272.981L466.528 272.981C466.477 272.877 466.375 272.596 466.222 272.115C466.074 271.649 465.889 271.029 465.672 270.274C465.239 268.765 464.684 266.731 464.052 264.345C462.789 259.575 461.225 253.409 459.736 247.254C458.247 241.098 456.835 234.957 455.876 230.235C455.396 227.873 455.031 225.873 454.827 224.408C454.724 223.673 454.663 223.085 454.647 222.656C454.639 222.441 454.642 222.278 454.654 222.164C454.655 222.15 454.657 222.138 454.658 222.127C454.668 222.126 454.678 222.126 454.69 222.127C454.839 222.13 455.073 222.175 455.403 222.285C456.054 222.502 456.945 222.923 458.008 223.499C460.126 224.649 462.842 226.37 465.531 228.16C468.216 229.949 470.863 231.8 472.839 233.204C473.826 233.906 474.646 234.496 475.219 234.91C475.505 235.117 475.73 235.28 475.882 235.392L475.91 235.412C475.91 235.489 475.91 235.581 475.91 235.688C475.909 236.03 475.911 236.523 475.916 237.131C475.927 238.347 475.955 240.022 476.026 241.856C476.167 245.507 476.476 249.854 477.162 252.46C477.833 255.007 479.506 261.25 481.011 266.855C481.763 269.658 482.474 272.302 482.996 274.246L483.62 276.567L483.792 277.207L483.837 277.374L483.849 277.417L483.852 277.428L483.852 277.43L483.852 277.431C483.853 277.431 483.853 277.431 484.335 277.301L483.853 277.431ZM454.594 222.133C454.591 222.134 454.588 222.135 454.588 222.135C454.588 222.135 454.59 222.134 454.594 222.133Z" fill="white" stroke="black"/>
<path d="M404.531 179.425C407.573 179.215 409.731 177.684 411.289 175.551C412.833 173.436 413.797 170.719 414.491 168.082C414.839 166.759 415.122 165.445 415.376 164.225C415.425 163.986 415.474 163.752 415.521 163.522C415.717 162.569 415.898 161.691 416.085 160.918C416.318 159.952 416.55 159.195 416.808 158.688C416.992 158.327 417.146 158.174 417.26 158.113C417.261 158.116 417.262 158.118 417.263 158.12C417.346 158.282 417.443 158.553 417.55 158.947C417.761 159.728 417.981 160.892 418.208 162.397C418.661 165.403 419.13 169.706 419.601 174.882C420.543 185.231 421.489 199.034 422.333 212.841C423.177 226.648 423.918 240.454 424.447 250.81C424.712 255.988 424.924 260.302 425.07 263.323C425.143 264.833 425.2 266.019 425.238 266.828L425.272 267.553L369.441 268.402L374.097 210.925L384.041 161.006C384.297 161.51 384.625 162.136 385.018 162.849C386.066 164.75 387.586 167.279 389.47 169.787C391.351 172.292 393.61 174.794 396.14 176.623C398.669 178.452 401.508 179.634 404.531 179.425Z" fill="#F9F2E7" stroke="black"/>
<path d="M414.5 148C414.5 148 420.776 150.813 425 152C430.595 153.573 434.313 152.124 439.704 154.294C443.901 155.984 446.326 157.243 449.523 160.445C452.724 163.65 455.665 170.285 455.665 170.285L459.15 177.869L463.033 184.833L468 198L474.623 217.679C474.623 217.679 492.672 278.251 484.5 278L466.5 279.5L442.605 210.042L448.947 263.743L453 297C453 297 442.569 294.546 439.704 297C436.84 299.454 426.5 295.5 426.5 295.5L409 234.5C409 234.5 416 172.85 416 166.5C416 160.15 414.5 148 414.5 148Z" fill="#2F80ED"/>
<path d="M379.286 145.932C379.286 145.932 377.684 144.047 376.045 144.254C374.406 144.461 371.335 146.302 371.335 146.302L364.38 147.943L357.212 151.639C357.212 151.639 345.326 158.396 343.111 170.284C340.897 182.171 339 186.499 339 186.499L358.615 196.336C358.615 196.336 359.257 268.376 357.212 273.499C355.167 278.622 352 304.999 352 304.999L392.626 300.999L397 279.999L409.5 233.499C409.5 233.499 399.381 177.699 392.626 169.086C385.871 160.474 378.673 149.022 379.286 145.932Z" fill="#2F80ED"/>
<g opacity="0.1">
<path opacity="0.1" d="M364.942 94.6569C364.751 94.1004 364.605 93.5293 364.506 92.9492C364.698 93.5055 364.843 94.0767 364.942 94.6569Z" fill="black"/>
<path opacity="0.1" d="M416.767 112.799C416.664 112.423 416.528 112.057 416.361 111.705C415.179 109.029 416.693 107.122 418.457 105.333C420.167 103.773 421.268 101.656 421.565 99.3593C421.665 98.7329 421.724 98.1008 421.743 97.4668C421.887 97.6524 422.016 97.8503 422.126 98.0582C422.754 99.3297 422.577 100.83 422.385 102.228C422.088 104.526 420.983 106.644 419.269 108.201C417.926 109.583 416.73 111.018 416.767 112.799Z" fill="black"/>
<path opacity="0.1" d="M370.597 137.046C371.94 136.654 373.136 137.985 373.801 139.212C374.465 140.439 375.225 141.918 376.613 142.095C378.297 142.31 379.456 140.491 380.157 138.946C380.858 137.401 381.582 135.767 381.523 134.067C381.514 133.861 381.494 133.656 381.464 133.453C381.943 134.558 382.24 135.734 382.342 136.935C382.394 138.635 381.678 140.262 380.976 141.814C380.275 143.367 379.116 145.185 377.433 144.964C376.045 144.786 375.284 143.315 374.62 142.08C373.956 140.846 372.76 139.53 371.416 139.914C370.811 140.092 370.191 140.602 369.644 140.291C369.501 140.186 369.382 140.052 369.293 139.898C369.204 139.744 369.148 139.574 369.127 139.397C368.99 138.755 368.909 138.102 368.884 137.445C369.415 137.682 370.021 137.194 370.597 137.046Z" fill="black"/>
<path opacity="0.1" d="M362.195 123.378C363.96 124.79 366.138 125.87 367.208 127.858C367.64 128.723 367.891 129.666 367.946 130.631C366.861 128.708 364.735 127.636 363 126.247C360.276 124.049 358.44 120.936 357.832 117.486C358.754 119.795 360.257 121.825 362.195 123.378Z" fill="black"/>
</g>
<path opacity="0.1" d="M393.851 360.801C393.851 360.801 375.395 356.291 372.568 358.753C369.74 361.215 393.851 360.801 393.851 360.801Z" fill="black"/>
<path d="M627.389 343.25L525.511 345.468V467.588L622.222 533.242L645.477 511.803L640.678 440.834L645.477 374.669L627.389 343.25Z" fill="#A2A2A2"/>
<path d="M188.296 535.23C188.334 536.458 188.38 537.553 188.43 538.504L164.652 461.357L164.651 461.355C157.768 439.413 157.326 415.952 163.379 393.765C171.772 363.717 189.9 343.868 208.218 330.93C228.114 317.011 251.419 308.779 275.633 307.119L275.635 307.119L559.787 286.345L559.79 286.345C561.968 286.176 564.159 286.419 566.248 287.064L566.395 286.586L566.248 287.064L682.854 323.017L358.274 356.768C358.269 356.768 358.264 356.769 358.259 356.769C311.214 358.992 277.07 371.723 252.325 389.598C227.579 407.474 212.267 430.473 202.849 453.181C193.433 475.886 189.907 498.305 188.733 515.043C188.147 523.414 188.148 530.367 188.296 535.23Z" fill="#F7F7F7" stroke="black"/>
<path opacity="0.1" d="M500.433 502.23C502.529 505.106 505.106 509.172 505.918 512.765C509.137 509.032 509.831 504.818 505.18 501.454C499.355 497.211 497.413 489.848 496.978 483.312C496.618 484.534 496.371 485.786 496.239 487.053C495.688 492.46 497.185 497.876 500.433 502.23Z" fill="white"/>
<path d="M202.157 522.123L216.184 569.806L247.929 600.855L287.794 608.987L349.807 597.898V377.226C349.807 377.226 339.103 370.203 337.995 370.203C336.888 370.203 306.989 375.008 306.989 375.008L239.291 423.63L236.486 425.648L206.218 470.744L202.157 522.123Z" fill="white"/>
<path d="M349.807 368.016V597.928L343.828 599V368.016H349.807Z" fill="#A1A1A1"/>
<path d="M730.375 419.726C730.375 419.726 725.806 431.82 720.904 445.903C716.563 458.419 711.956 472.517 710.073 481.085C709.335 484.36 707.482 487.738 704.861 491.043C692.909 506.235 665.365 520.954 660.611 526.18C654.815 532.553 343 598.86 343 598.86V367.86L644 334H671.684L707.49 350.264L725.946 377.617L730.375 419.726Z" fill="white"/>
<path d="M346.73 255.271C346.84 255.427 346.927 255.551 346.988 255.638C346.98 255.729 346.971 255.853 346.958 256.007C346.93 256.359 346.888 256.867 346.835 257.492C346.729 258.741 346.577 260.457 346.394 262.322C346.027 266.062 345.539 270.371 345.048 272.74L345.045 272.752L345.044 272.764L344.969 273.246C344.606 275.575 343.749 281.295 342.982 286.431C342.599 289 342.238 291.423 341.973 293.204L341.657 295.331L341.57 295.918L341.55 296.05L336.45 306.877C336.404 306.916 336.34 306.972 336.258 307.041C336.082 307.189 335.828 307.4 335.515 307.651C334.889 308.153 334.03 308.812 333.097 309.443C332.162 310.077 331.167 310.671 330.268 311.053C329.818 311.244 329.406 311.376 329.047 311.438C328.685 311.5 328.407 311.484 328.205 311.414C325.849 310.6 324.445 309.113 323.642 307.334C322.832 305.537 322.626 303.42 322.73 301.363C322.833 299.312 323.242 297.358 323.627 295.912C323.82 295.191 324.006 294.599 324.143 294.189C324.211 293.984 324.268 293.824 324.307 293.717C324.326 293.663 324.341 293.622 324.351 293.595L324.361 293.571L329.31 282.875L329.369 282.747L329.353 282.606C329.342 282.516 329.344 282.291 329.374 281.904C329.402 281.531 329.452 281.046 329.522 280.463C329.662 279.296 329.879 277.749 330.156 275.951C330.71 272.355 331.498 267.765 332.368 263.213C333.239 258.659 334.189 254.151 335.066 250.718C335.506 249 335.923 247.563 336.301 246.527C336.49 246.007 336.663 245.604 336.818 245.321C336.895 245.179 336.961 245.08 337.015 245.014C337.049 244.972 337.07 244.954 337.076 244.949C337.157 244.917 337.357 244.906 337.758 245.108C338.152 245.307 338.63 245.658 339.171 246.137C340.248 247.091 341.485 248.475 342.665 249.912C343.842 251.344 344.948 252.813 345.761 253.924C346.167 254.479 346.499 254.945 346.73 255.271Z" fill="white" stroke="black"/>
<path d="M328.5 276C329.393 276.082 338.291 280.416 346.5 281L358.5 212L363.967 193.409L367.858 176.406L345.326 181.966C343.281 182.38 339 186 339 186L335.5 196.5C335.5 196.5 332.5 205.5 331.816 210.871C331.133 216.241 328.5 276 328.5 276Z" fill="#2F80ED"/>
<path d="M129.654 509.74C129.654 509.74 134.918 516.638 127.225 527.047C119.532 537.455 113.198 546.268 115.745 552.744C115.745 552.744 127.358 533.404 136.815 533.138C146.272 532.872 140.093 521.384 129.654 509.74Z" fill="#57B894"/>
<path opacity="0.1" d="M129.654 509.74C130.114 510.405 130.477 511.132 130.732 511.899C139.952 522.751 144.869 532.879 136.003 533.138C127.742 533.375 117.834 548.16 115.465 551.893C115.539 552.183 115.633 552.467 115.745 552.744C115.745 552.744 127.358 533.404 136.815 533.138C146.272 532.872 140.093 521.384 129.654 509.74Z" fill="black"/>
<path d="M139.443 518.531C139.443 520.955 139.17 522.922 138.838 522.922C138.505 522.922 138.232 520.955 138.232 518.531C138.232 516.106 138.572 517.244 138.904 517.244C139.236 517.244 139.443 516.098 139.443 518.531Z" fill="#FFD037"/>
<path d="M142.802 521.428C140.676 522.588 138.823 523.291 138.66 522.995C138.498 522.699 140.093 521.516 142.226 520.356C144.36 519.195 143.511 520.038 143.703 520.356C143.895 520.674 144.936 520.267 142.802 521.428Z" fill="#FFD037"/>
<path d="M101.829 509.74C101.829 509.74 96.5654 516.638 104.258 527.047C111.95 537.455 118.285 546.268 115.745 552.744C115.745 552.744 104.125 533.404 94.6754 533.138C85.2258 532.872 91.4271 521.384 101.829 509.74Z" fill="#57B894"/>
<path opacity="0.1" d="M101.829 509.74C101.369 510.405 101.006 511.132 100.751 511.899C91.5305 522.751 86.6137 532.879 95.4801 533.138C103.741 533.375 113.648 548.16 116.026 551.893C115.948 552.182 115.854 552.465 115.745 552.744C115.745 552.744 104.125 533.404 94.6754 533.138C85.2258 532.872 91.4271 521.384 101.829 509.74Z" fill="black"/>
<path d="M92.0399 518.531C92.0399 520.955 92.3131 522.922 92.6453 522.922C92.9775 522.922 93.2506 520.955 93.2506 518.531C93.2506 516.106 92.911 517.244 92.5788 517.244C92.2466 517.244 92.0399 516.098 92.0399 518.531Z" fill="#FFD037"/>
<path d="M88.6808 521.428C90.807 522.588 92.66 523.291 92.8224 522.995C92.9848 522.699 91.3902 521.516 89.2567 520.356C87.1231 519.195 87.9721 520.038 87.7802 520.356C87.5882 520.674 86.5473 520.267 88.6808 521.428Z" fill="#FFD037"/>
<path opacity="0.1" d="M116.287 605.513C146.628 603.362 170.956 597.838 170.626 593.175C170.297 588.512 145.434 586.475 115.093 588.626C84.753 590.778 60.4246 596.302 60.7544 600.965C61.0841 605.628 85.947 607.665 116.287 605.513Z" fill="#EFEFEF"/>
<path d="M144.087 543.452L143.821 545.603L143.452 548.649L143.304 549.913L142.935 552.959L142.772 554.23L142.403 557.269L138.188 591.867C137.811 594.957 132.777 597.359 126.693 597.359H104.789C98.7063 597.359 93.6788 594.957 93.3023 591.867L89.0795 557.269L88.7104 554.23L88.5554 552.959L88.1788 549.913L88.0312 548.649L87.6621 545.603L87.3963 543.452C87.1822 541.7 89.9137 540.229 93.354 540.229H138.136C141.569 540.229 144.301 541.7 144.087 543.452Z" fill="#65617D"/>
<path d="M143.821 545.609L143.452 548.648H88.0239L87.6548 545.609H143.821Z" fill="#9D9CB5"/>
<path d="M143.297 549.92L142.927 552.966H88.5553L88.1788 549.92H143.297Z" fill="#9D9CB5"/>
<path d="M142.765 554.23L142.396 557.269H89.0796L88.7104 554.23H142.765Z" fill="#9D9CB5"/>
<path opacity="0.1" d="M555.609 298.25L575.778 299.278L542.535 309.76L525.511 308.777L555.609 298.25Z" fill="black"/>
<path d="M555.602 297.371L575.771 298.406L542.52 308.889L525.496 307.898L555.602 297.371Z" fill="white"/>
<path d="M553.225 299.662C554.015 299.314 554.871 299.943 555.72 300.091C556.207 300.179 556.709 300.091 557.197 300.165C558.186 300.283 559.175 300.904 560.15 300.586L553.225 299.662Z" fill="#D3DAE1"/>
<path d="M552.191 300.283C552.981 299.936 553.838 300.564 554.687 300.712C555.174 300.8 555.676 300.712 556.163 300.786C557.152 300.904 558.142 301.525 559.079 301.2L552.191 300.283Z" fill="#D3DAE1"/>
<path d="M549.822 301.525C550.611 301.178 551.468 301.806 552.324 301.954C552.804 302.043 553.306 301.954 553.801 302.028C554.79 302.146 555.779 302.767 556.754 302.442L549.822 301.525Z" fill="#D3DAE1"/>
<path d="M600.82 294.295C600.82 294.295 598.295 306.064 609.524 307.454L610.218 306.153C610.218 306.153 601.499 297.954 600.82 294.295Z" fill="#57B894"/>
<path d="M613.791 306.065L611.177 306.62L610.919 306.671C610.919 306.671 603.95 301.009 604.039 288.367C604.97 290.231 606.085 291.997 607.368 293.638C610.129 297.298 613.267 302.184 613.791 306.065Z" fill="#57B894"/>
<path d="M614.669 307.277C614.464 307.409 614.231 307.494 613.988 307.524C613.746 307.555 613.499 307.531 613.267 307.454C606.564 305.887 608.837 284.012 608.837 284.012C609.206 284.189 609.612 286.969 611.155 290.562C613.85 296.875 616.825 305.687 614.669 307.277Z" fill="#57B894"/>
<path d="M629.552 294.295C629.552 294.295 629.988 306.064 618.759 307.454L618.065 306.153C618.065 306.153 628.814 297.954 629.552 294.295Z" fill="#57B894"/>
<path d="M626.319 288.367C626.408 301.009 617.357 306.671 617.357 306.671L617.091 306.62L614.485 306.065C615.002 302.184 618.176 297.298 620.9 293.638C622.464 291.647 624.286 289.875 626.319 288.367Z" fill="#57B894"/>
<path d="M617.054 306.131C616.653 306.618 616.149 307.009 615.577 307.277C615.399 307.354 615.214 307.414 615.024 307.454C613.377 307.846 612.809 306.648 612.898 304.63C613.053 301.022 615.312 294.775 617.327 290.103C618.296 287.804 619.729 285.731 621.535 284.012C621.535 284.012 621.432 301.081 617.054 306.131Z" fill="#57B894"/>
<path d="M615.179 276.34C615.179 276.34 607.693 302.954 614.138 306.938C620.583 310.923 616.832 278.698 615.179 276.34Z" fill="#57B894"/>
<path opacity="0.1" d="M600.82 294.295C600.82 294.295 598.295 306.064 609.524 307.454L610.218 306.153C610.218 306.153 601.499 297.954 600.82 294.295Z" fill="black"/>
<path opacity="0.1" d="M613.791 306.065L611.177 306.62L610.919 306.671C610.919 306.671 603.95 301.009 604.039 288.367C604.97 290.231 606.085 291.997 607.368 293.638C610.129 297.298 613.267 302.184 613.791 306.065Z" fill="black"/>
<path opacity="0.1" d="M614.669 307.277C614.464 307.409 614.231 307.494 613.988 307.524C613.746 307.555 613.499 307.531 613.267 307.454C606.564 305.887 608.837 284.012 608.837 284.012C609.206 284.189 609.612 286.969 611.155 290.562C613.85 296.875 616.825 305.687 614.669 307.277Z" fill="black"/>
<path opacity="0.1" d="M629.552 294.295C629.552 294.295 629.988 306.064 618.759 307.454L618.065 306.153C618.065 306.153 628.814 297.954 629.552 294.295Z" fill="black"/>
<path opacity="0.1" d="M626.319 288.367C626.408 301.009 617.357 306.671 617.357 306.671L617.091 306.62L614.485 306.065C615.002 302.184 618.176 297.298 620.9 293.638C622.464 291.647 624.286 289.875 626.319 288.367Z" fill="black"/>
<path opacity="0.1" d="M617.054 306.131C616.653 306.618 616.149 307.009 615.577 307.277C615.399 307.354 615.214 307.414 615.024 307.454C613.377 307.846 612.809 306.648 612.898 304.63C613.053 301.022 615.312 294.775 617.327 290.103C618.296 287.804 619.729 285.731 621.535 284.012C621.535 284.012 621.432 301.081 617.054 306.131Z" fill="black"/>
<path opacity="0.1" d="M615.179 276.34C615.179 276.34 607.693 302.954 614.138 306.938C620.583 310.923 616.832 278.698 615.179 276.34Z" fill="black"/>
<path d="M600.82 294.295C600.82 294.295 599.343 306.064 610.565 307.454L611.259 306.153C611.259 306.153 601.499 297.954 600.82 294.295Z" fill="#57B894"/>
<path d="M614.832 306.065L612.218 306.62L611.96 306.671C611.96 306.671 603.95 301.009 604.039 288.367C604.039 288.367 606.091 290.585 608.409 293.638C611.17 297.298 614.308 302.184 614.832 306.065Z" fill="#57B894"/>
<path opacity="0.1" d="M614.832 306.064L612.218 306.618C609.745 304.437 608.763 298.76 608.409 293.637C611.17 297.296 614.308 302.183 614.832 306.064Z" fill="black"/>
<path d="M615.718 307.277C615.51 307.409 615.276 307.493 615.033 307.524C614.789 307.555 614.541 307.531 614.308 307.454C607.604 305.887 608.83 284.012 608.83 284.012C609.199 284.189 610.653 286.969 612.189 290.562C614.898 296.875 617.866 305.687 615.718 307.277Z" fill="#57B894"/>
<path d="M629.552 294.295C629.552 294.295 631.029 306.064 619.808 307.454L619.114 306.153C619.114 306.153 628.814 297.954 629.552 294.295Z" fill="#57B894"/>
<path d="M626.319 288.367C626.407 301.009 618.397 306.671 618.397 306.671L618.139 306.62L615.526 306.065C616.042 302.184 619.217 297.298 621.948 293.638C624.266 290.57 626.319 288.367 626.319 288.367Z" fill="#57B894"/>
<path opacity="0.1" d="M237.963 438.985C282.258 402.539 642.191 346.165 660.5 345.5L349.807 377.227C349.807 377.227 339.103 370.204 337.995 370.204C336.888 370.204 306.989 375.009 306.989 375.009L239.291 423.631L237.963 438.985Z" fill="#818181"/>
<path opacity="0.1" d="M621.948 293.637C621.609 298.412 620.738 303.669 618.619 306.13C618.47 306.304 618.31 306.467 618.139 306.618L615.526 306.064C616.042 302.183 619.217 297.296 621.948 293.637Z" fill="black"/>
<path d="M618.095 306.131C617.696 306.62 617.191 307.012 616.618 307.277C616.442 307.353 616.26 307.413 616.072 307.454C614.418 307.846 613.857 306.648 613.938 304.63C614.101 301.022 616.36 294.775 618.368 290.103C619.845 286.732 621.181 284.189 621.535 284.012C621.535 284.012 622.48 301.081 618.095 306.131Z" fill="#57B894"/>
<path opacity="0.1" d="M615.718 307.277C615.337 307.274 614.967 307.156 614.655 306.937C611.502 304.971 611.436 297.586 612.189 290.562C614.898 296.876 617.866 305.688 615.718 307.277Z" fill="black"/>
<path opacity="0.1" d="M618.095 306.131C617.733 306.914 617.246 307.328 616.618 307.277C616.299 307.23 615.995 307.114 615.725 306.937C614.907 306.37 614.283 305.565 613.938 304.63C614.101 301.023 616.36 294.776 618.368 290.104C619.091 296.587 619.335 303.469 618.095 306.131Z" fill="black"/>
<path d="M615.179 276.34C615.179 276.34 608.741 302.954 615.179 306.938C621.616 310.923 616.832 278.698 615.179 276.34Z" fill="#57B894"/>
<path d="M625.278 308.246L624.828 310.597L623.189 319.224H607.604L605.966 310.597L605.515 308.246H625.278Z" fill="#65617D"/>
<path opacity="0.1" d="M625.278 308.246L624.828 310.597H605.966L605.515 308.246H625.278Z" fill="black"/>
<path d="M628.578 305.629H601.772V310.072H628.578V305.629Z" fill="#65617D"/>
<path d="M673.899 343.221C673.899 343.221 726.876 376.488 715.285 430.011C714.341 434.38 713.521 438.764 712.982 443.192C710.863 460.535 698.151 510.296 622.222 533.213V538.388L654.432 529.391L676.298 517.319L692.99 502.319L713.396 477.398L722.867 457.068L726.337 430.292L728.308 399.716L723.428 373.531L711.919 356.476L697.892 345.549L673.899 343.221Z" fill="#F1F1F1"/>
<path d="M186.156 486.103L186.156 486.103C190.719 461.799 201.638 429.056 227.564 402.22C253.477 375.397 294.431 354.424 359.166 353.73L359.191 353.73L359.215 353.727L636.658 323.419L667.857 321.764L667.86 321.764C677.501 321.202 687.144 322.849 696.055 326.578C704.966 330.306 712.911 336.02 719.287 343.284C735.378 361.832 747.663 394.642 729.773 451.151L729.769 451.165L729.765 451.179L729.765 451.181L729.762 451.19L729.753 451.228C729.744 451.262 729.73 451.313 729.711 451.381C729.674 451.518 729.617 451.722 729.538 451.99C729.381 452.525 729.138 453.316 728.796 454.328C728.112 456.354 727.033 459.27 725.456 462.82C722.301 469.921 717.154 479.556 709.187 489.683C693.258 509.93 666.047 532.156 620.903 540.017L620.891 540.019L620.878 540.022L357.736 599.74C351.888 601.067 346.114 602.69 340.416 604.565C328.497 608.482 302.358 615.513 274.466 612.944C246.595 610.377 216.999 598.232 198.048 563.807C185.04 540.177 181.171 512.61 186.156 486.103ZM620.989 540.51C711.55 524.741 730.25 451.302 730.25 451.302L359.161 353.23C229.458 354.62 194.812 437.293 185.665 486.011C180.659 512.624 184.543 540.31 197.61 564.048C235.711 633.258 316.682 612.891 340.572 605.04C346.256 603.17 352.015 601.551 357.847 600.228L620.989 540.51ZM223.227 560.884L222.801 561.145C240.711 590.344 268.11 600.588 293.747 602.68C319.371 604.77 343.278 598.725 354.325 595.309L354.178 594.831L354.326 595.309C359.709 593.642 365.158 592.197 370.672 591.017L370.672 591.017L613.714 538.901C655.71 531.992 681.072 512.455 695.932 494.624C703.361 485.712 708.162 477.23 711.107 470.973C712.579 467.845 713.588 465.272 714.229 463.478C714.55 462.581 714.779 461.879 714.928 461.4C715.003 461.16 715.057 460.976 715.093 460.852C715.112 460.789 715.125 460.742 715.134 460.709L715.14 460.687C715.141 460.683 715.142 460.678 715.144 460.674C729.313 418.379 723.143 391.077 711.612 373.705C699.543 355.536 678.539 345.396 656.784 346.492L656.783 346.492L628.05 347.97L628.03 347.971L628.01 347.974L379.869 381.167C374.857 381.838 369.816 382.28 364.769 382.457C309.495 384.334 273.208 400.491 249.638 421.475C226.072 442.455 215.264 468.221 210.874 489.242C205.726 513.873 209.641 539.687 222.801 561.145L223.227 560.884Z" fill="white" stroke="black"/>
<path d="M1143.71 58.1819C1140.92 57.7063 1137.75 57.4819 1135.04 56.1981C1134.34 55.8699 1133.95 55.0536 1133.23 54.9766C1131.97 54.8418 1131.79 52.7353 1130.52 52.6005C1129.81 52.5246 1126.84 51.4115 1125.98 50.9706C1119.34 47.5763 1126.18 54.0226 1127.65 55.8156C1128.72 57.1164 1134.58 66.5514 1135.81 66.1429C1139.27 64.9977 1135.81 55.7746 1135.76 52.8693C1135.72 50.6985 1135.51 47.9564 1134.62 45.806C1133.54 43.201 1134.42 46.7832 1134.09 48.3869C1133.6 50.7186 1132.83 52.972 1131.53 54.8963C1130.52 56.3902 1126.71 58.618 1126.39 60.2748C1126.28 60.857 1124.66 64.1673 1125.55 63.8735C1127.45 63.2439 1128.66 61.0848 1130.51 60.3308C1132.39 59.5666 1134.05 58.6335 1136.08 59.1939C1138.32 59.8112 1139.1 59.3974 1140.81 58.1334" stroke="#F9A825" stroke-width="1.9846" stroke-linecap="round"/>
<path d="M1082.22 537.461C1095.64 533.649 1101.36 554.605 1087.98 558.539C1074.56 562.351 1068.83 541.395 1082.22 537.461Z" fill="#232323"/>
<path d="M1007.22 564.461C1020.64 560.649 1026.36 581.605 1012.98 585.539C999.559 589.351 993.832 568.395 1007.22 564.461Z" fill="#232323"/>
<path d="M976.933 345.469L977.143 345.41L1012 440.99L1016.6 439.685L981.488 343.42C981.412 341.936 980.836 340.523 979.856 339.416C978.875 338.309 977.549 337.573 976.097 337.332C958.664 334.548 951.598 350.177 951.598 350.177L951.667 350.281L987.307 448L991.903 446.695L957.312 351.852C967.843 341.333 976.933 345.469 976.933 345.469Z" fill="#232323"/>
<path d="M1016.92 568.998C1037.5 568.684 1062.96 557.553 1080.31 549.209C1084.91 547.004 1088.58 543.245 1090.68 538.595C1092.78 533.945 1093.17 528.703 1091.78 523.794L1069.29 443.716C1068.28 440.167 1066.57 436.86 1064.25 433.995C1061.93 431.13 1059.05 428.767 1055.79 427.05C1052.62 425.365 1049.14 424.354 1045.57 424.077C1041.99 423.801 1038.4 424.267 1035.02 425.444C1034.21 425.806 1012.36 431.926 997.9 435.975C989.393 438.357 983.247 440.079 982.835 440.217C982.495 440.33 967.207 445.586 969.92 464.067C972.004 478.261 987.73 530.565 994.395 552.395C995.843 557.166 998.776 561.349 1002.77 564.336C1006.76 567.323 1011.59 568.957 1016.58 569C1016.69 569 1016.81 568.999 1016.92 568.998Z" fill="#2F80ED"/>
<path d="M1081.15 536L1051.87 436.863L983.009 456.327L982.598 454.872L1052.89 435L1053.1 435.717L1082.6 535.571L1081.15 536Z" fill="white"/>
<path d="M960.065 353.218L960.066 353.221C961.082 355.279 962.835 356.904 964.997 357.785C967.158 358.666 969.575 358.74 971.789 357.993C974.003 357.247 975.858 355.732 977.003 353.74C978.149 351.748 978.508 349.415 978.013 347.183L977.994 347.097L978.005 347.011L982.067 315.978L968.201 305.935L966.33 339.75L966.31 340.105L965.969 340.201C964.632 340.577 963.397 341.234 962.35 342.127C961.303 343.02 960.469 344.126 959.907 345.367C959.345 346.608 959.068 347.953 959.096 349.309C959.123 350.665 959.453 352 960.065 353.218Z" fill="#FFFDF7" stroke="black" stroke-width="0.992299"/>
<path d="M846.392 359.419L846.393 359.417C847.185 358.29 847.719 357.004 847.958 355.649C848.198 354.294 848.136 352.903 847.778 351.575C847.421 350.246 846.775 349.012 845.887 347.959C844.999 346.906 843.89 346.06 842.639 345.48L842.318 345.332L842.354 344.98L845.808 310.866L830.633 318.791L829.764 350.464L829.762 350.55L829.731 350.63C828.894 352.791 828.881 355.184 829.695 357.354C830.509 359.524 832.092 361.321 834.146 362.405C836.2 363.489 838.581 363.783 840.838 363.233C843.095 362.683 845.071 361.326 846.392 359.419Z" fill="#FFFDF7" stroke="black" stroke-width="0.992299"/>
<path d="M915.162 530.496L920.837 574.503L932.099 574.504L932.101 530.496H915.162Z" fill="#FFFDF7" stroke="black" stroke-width="0.992299"/>
<path d="M849.255 527.864L863.627 568.425L874.006 566.249L864.885 524.587L849.255 527.864Z" fill="#FFFDF7" stroke="black" stroke-width="0.992299"/>
<path d="M881.073 556.602L856.933 463.041L856.881 462.842L856.985 462.666L903.146 384.046L903.975 382.635L904.07 384.269L914.072 556.709L937.717 564.325L940.714 451.71L940.715 451.659L940.727 451.609L952.875 400.415L952.877 400.406L952.88 400.396C958.826 379.105 958.764 359.038 957.214 344.29C956.439 336.917 955.292 330.877 954.34 326.683C953.864 324.585 953.436 322.95 953.128 321.84C952.974 321.285 952.85 320.862 952.765 320.578C952.764 320.574 952.763 320.571 952.762 320.567L855.401 338.407L850.61 361.24L850.607 361.256L850.602 361.271L824.114 456.157L854.135 557.483L881.073 556.602Z" fill="#232323" stroke="black" stroke-width="0.992299"/>
<mask id="path-99-inside-2_53_481" fill="white">
<path fill-rule="evenodd" clip-rule="evenodd" d="M857.449 191.947L877.549 180.472L920.008 178.014L943.027 190.117L943.115 189.736C943.115 189.736 954.786 191.25 962.875 213.877C970.964 236.505 985.342 284.204 985.342 284.204L984.591 301.533C984.591 301.533 990.132 307.946 986.309 310.874C984.565 312.21 985.849 313.763 987.246 315.452C988.911 317.465 990.736 319.672 987.781 321.936C985.396 323.766 983.589 326.248 982.579 329.083C981.569 331.917 981.398 334.984 982.088 337.913L965.398 332.751L966.625 305.466L960.013 283.959L943.581 233.898L937.491 275.741C937.491 275.741 960.319 308.554 951.996 330.417C941.724 357.401 851.899 371.478 853.656 345.144C855.448 318.292 857.869 309.987 860.206 301.974C861.485 297.585 862.739 293.285 863.85 286.074C864.782 280.021 863.696 273.505 861.615 267.221L850.703 309.655L845.549 334.105L826.65 337.913C826.65 337.913 828.189 335.375 826.689 330.544C825.187 325.707 827.545 325.747 827.596 325.424C827.623 325.255 827.025 324.988 824.932 323.884C821.215 321.922 823.649 320.248 825.688 318.846C827.001 317.942 828.151 317.151 827.387 316.469C825.436 314.728 829.105 308.653 829.105 308.653L838.922 260.954C838.922 260.954 841.321 220.939 846.375 205.126C850.367 192.634 855.478 191.762 857.449 191.947Z"/>
</mask>
<path fill-rule="evenodd" clip-rule="evenodd" d="M857.449 191.947L877.549 180.472L920.008 178.014L943.027 190.117L943.115 189.736C943.115 189.736 954.786 191.25 962.875 213.877C970.964 236.505 985.342 284.204 985.342 284.204L984.591 301.533C984.591 301.533 990.132 307.946 986.309 310.874C984.565 312.21 985.849 313.763 987.246 315.452C988.911 317.465 990.736 319.672 987.781 321.936C985.396 323.766 983.589 326.248 982.579 329.083C981.569 331.917 981.398 334.984 982.088 337.913L965.398 332.751L966.625 305.466L960.013 283.959L943.581 233.898L937.491 275.741C937.491 275.741 960.319 308.554 951.996 330.417C941.724 357.401 851.899 371.478 853.656 345.144C855.448 318.292 857.869 309.987 860.206 301.974C861.485 297.585 862.739 293.285 863.85 286.074C864.782 280.021 863.696 273.505 861.615 267.221L850.703 309.655L845.549 334.105L826.65 337.913C826.65 337.913 828.189 335.375 826.689 330.544C825.187 325.707 827.545 325.747 827.596 325.424C827.623 325.255 827.025 324.988 824.932 323.884C821.215 321.922 823.649 320.248 825.688 318.846C827.001 317.942 828.151 317.151 827.387 316.469C825.436 314.728 829.105 308.653 829.105 308.653L838.922 260.954C838.922 260.954 841.321 220.939 846.375 205.126C850.367 192.634 855.478 191.762 857.449 191.947Z" fill="#F9F2E7"/>
<path d="M877.549 180.472L877.057 179.61L877.259 179.495L877.492 179.481L877.549 180.472ZM857.449 191.947L857.941 192.808L857.669 192.964L857.357 192.935L857.449 191.947ZM920.008 178.014L919.951 177.023L920.226 177.007L920.47 177.135L920.008 178.014ZM943.027 190.117L943.994 190.34L943.705 191.595L942.565 190.996L943.027 190.117ZM943.115 189.736L942.148 189.514L942.35 188.637L943.243 188.752L943.115 189.736ZM985.342 284.204L986.292 283.918L986.34 284.079L986.333 284.247L985.342 284.204ZM984.591 301.533L983.84 302.182L983.582 301.884L983.599 301.49L984.591 301.533ZM986.309 310.874L985.705 310.086H985.705L986.309 310.874ZM987.246 315.452L988.011 314.819H988.011L987.246 315.452ZM987.781 321.936L987.177 321.148L987.178 321.148L987.781 321.936ZM982.579 329.083L983.514 329.416H983.514L982.579 329.083ZM982.088 337.913L983.053 337.686L983.451 339.374L981.794 338.861L982.088 337.913ZM965.398 332.751L965.105 333.699L964.373 333.473L964.407 332.707L965.398 332.751ZM966.625 305.466L967.574 305.175L967.624 305.339L967.617 305.511L966.625 305.466ZM960.013 283.959L960.956 283.649L960.959 283.658L960.962 283.667L960.013 283.959ZM943.581 233.898L942.599 233.755L944.524 233.589L943.581 233.898ZM937.491 275.741L936.677 276.308L936.453 275.986L936.509 275.598L937.491 275.741ZM951.996 330.417L952.923 330.77L951.996 330.417ZM853.656 345.144L854.646 345.21L853.656 345.144ZM860.206 301.974L859.253 301.696L860.206 301.974ZM863.85 286.074L862.869 285.923V285.923L863.85 286.074ZM861.615 267.221L860.654 266.974L861.496 263.703L862.557 266.91L861.615 267.221ZM850.703 309.655L849.732 309.45L849.736 309.429L849.742 309.408L850.703 309.655ZM845.549 334.105L846.52 334.31L846.385 334.949L845.745 335.078L845.549 334.105ZM826.65 337.913L826.846 338.886L824.63 339.333L825.802 337.399L826.65 337.913ZM826.689 330.544L827.637 330.25V330.25L826.689 330.544ZM827.596 325.424L828.576 325.578V325.578L827.596 325.424ZM824.932 323.884L825.396 323.007L824.932 323.884ZM825.688 318.846L826.25 319.663L825.688 318.846ZM827.387 316.469L828.048 315.729L827.387 316.469ZM829.105 308.653L830.077 308.853L830.042 309.02L829.954 309.166L829.105 308.653ZM838.922 260.954L839.913 261.014L839.908 261.085L839.894 261.154L838.922 260.954ZM846.375 205.126L847.32 205.428L846.375 205.126ZM878.041 181.334L857.941 192.808L856.957 191.085L877.057 179.61L878.041 181.334ZM920.066 179.004L877.606 181.462L877.492 179.481L919.951 177.023L920.066 179.004ZM942.565 190.996L919.547 178.892L920.47 177.135L943.489 189.239L942.565 190.996ZM944.082 189.959L943.994 190.34L942.06 189.895L942.148 189.514L944.082 189.959ZM961.941 214.211C957.946 203.036 953.099 197.163 949.334 194.09C947.45 192.552 945.824 191.705 944.692 191.246C944.125 191.016 943.68 190.882 943.387 190.807C943.24 190.77 943.131 190.747 943.063 190.734C943.029 190.727 943.005 190.723 942.993 190.721C942.986 190.72 942.983 190.72 942.982 190.72C942.981 190.72 942.982 190.72 942.982 190.72C942.983 190.72 942.984 190.72 942.984 190.72C942.985 190.72 942.986 190.72 942.986 190.72C942.987 190.72 942.987 190.72 943.115 189.736C943.243 188.752 943.243 188.752 943.244 188.753C943.245 188.753 943.246 188.753 943.247 188.753C943.248 188.753 943.25 188.753 943.252 188.754C943.255 188.754 943.26 188.755 943.265 188.755C943.275 188.757 943.289 188.759 943.305 188.761C943.337 188.767 943.38 188.774 943.433 188.784C943.54 188.804 943.69 188.836 943.878 188.884C944.254 188.98 944.784 189.142 945.438 189.407C946.747 189.938 948.545 190.884 950.589 192.553C954.682 195.893 959.716 202.091 963.809 213.543L961.941 214.211ZM985.342 284.204C984.392 284.491 984.392 284.491 984.391 284.49C984.391 284.49 984.391 284.489 984.391 284.489C984.391 284.487 984.39 284.485 984.389 284.482C984.387 284.476 984.385 284.468 984.381 284.456C984.374 284.433 984.364 284.399 984.35 284.354C984.323 284.263 984.282 284.128 984.228 283.95C984.121 283.596 983.963 283.073 983.759 282.399C983.35 281.051 982.757 279.1 982.02 276.688C980.546 271.864 978.496 265.196 976.194 257.822C971.588 243.068 965.977 225.504 961.941 214.211L963.809 213.543C967.861 224.878 973.483 242.478 978.089 257.23C980.392 264.61 982.443 271.281 983.918 276.108C984.655 278.521 985.249 280.474 985.658 281.823C985.862 282.497 986.021 283.021 986.128 283.376C986.182 283.554 986.223 283.689 986.25 283.78C986.264 283.826 986.274 283.86 986.281 283.883C986.285 283.895 986.287 283.903 986.289 283.909C986.29 283.912 986.291 283.914 986.291 283.916C986.291 283.917 986.292 283.917 986.292 283.917C986.292 283.918 986.292 283.918 985.342 284.204ZM983.599 301.49L984.35 284.161L986.333 284.247L985.582 301.576L983.599 301.49ZM985.705 310.086C986.39 309.562 986.648 308.914 986.661 308.161C986.675 307.361 986.407 306.443 985.982 305.521C985.563 304.611 985.027 303.773 984.588 303.156C984.37 302.849 984.18 302.602 984.045 302.432C983.978 302.348 983.925 302.283 983.889 302.241C983.871 302.219 983.858 302.204 983.85 302.194C983.846 302.189 983.843 302.185 983.841 302.183C983.84 302.182 983.84 302.182 983.84 302.182C983.839 302.181 983.839 302.181 983.84 302.182C983.84 302.182 983.84 302.182 983.84 302.182C983.84 302.182 983.84 302.182 984.591 301.533C985.342 300.885 985.342 300.885 985.342 300.885C985.342 300.885 985.342 300.885 985.343 300.886C985.343 300.886 985.344 300.887 985.344 300.887C985.345 300.889 985.347 300.89 985.349 300.893C985.352 300.897 985.357 300.903 985.363 300.91C985.376 300.924 985.393 300.945 985.415 300.972C985.459 301.024 985.521 301.1 985.598 301.197C985.751 301.39 985.964 301.666 986.206 302.006C986.686 302.682 987.296 303.631 987.785 304.69C988.267 305.738 988.667 306.971 988.645 308.197C988.623 309.47 988.14 310.722 986.912 311.662L985.705 310.086ZM986.481 316.084C985.824 315.289 985.016 314.333 984.667 313.369C984.479 312.851 984.393 312.258 984.569 311.642C984.746 311.026 985.149 310.513 985.705 310.086L986.912 311.662C986.597 311.904 986.507 312.085 986.477 312.189C986.447 312.293 986.442 312.444 986.533 312.693C986.738 313.261 987.271 313.925 988.011 314.819L986.481 316.084ZM987.178 321.148C987.82 320.656 988.121 320.23 988.255 319.888C988.383 319.561 988.39 319.232 988.289 318.86C988.061 318.024 987.358 317.144 986.481 316.084L988.011 314.819C988.799 315.773 989.841 317.003 990.204 318.34C990.398 319.054 990.411 319.827 990.102 320.613C989.799 321.385 989.221 322.083 988.385 322.723L987.178 321.148ZM981.644 328.75C982.719 325.735 984.64 323.095 987.177 321.148L988.385 322.723C986.152 324.437 984.46 326.761 983.514 329.416L981.644 328.75ZM981.122 338.141C980.389 335.025 980.57 331.764 981.644 328.75L983.514 329.416C982.568 332.07 982.408 334.943 983.053 337.686L981.122 338.141ZM965.692 331.803L982.381 336.965L981.794 338.861L965.105 333.699L965.692 331.803ZM967.617 305.511L966.39 332.796L964.407 332.707L965.634 305.422L967.617 305.511ZM960.962 283.667L967.574 305.175L965.677 305.758L959.065 284.25L960.962 283.667ZM944.524 233.589L960.956 283.649L959.071 284.268L942.638 234.208L944.524 233.589ZM936.509 275.598L942.599 233.755L944.563 234.041L938.473 275.884L936.509 275.598ZM951.069 330.064C955.081 319.523 951.607 306.179 946.952 295.27C944.64 289.851 942.068 285.105 940.073 281.713C939.076 280.017 938.224 278.662 937.623 277.733C937.322 277.268 937.084 276.91 936.922 276.669C936.841 276.548 936.779 276.457 936.737 276.396C936.717 276.366 936.701 276.343 936.691 276.329C936.686 276.321 936.682 276.316 936.68 276.312C936.678 276.31 936.678 276.309 936.677 276.309C936.677 276.308 936.677 276.308 936.677 276.308C936.677 276.308 936.677 276.308 937.491 275.741C938.306 275.174 938.306 275.175 938.306 275.175C938.306 275.175 938.307 275.176 938.307 275.177C938.308 275.178 938.309 275.18 938.311 275.182C938.314 275.186 938.319 275.193 938.324 275.201C938.336 275.218 938.353 275.243 938.375 275.276C938.42 275.34 938.485 275.436 938.569 275.561C938.737 275.812 938.982 276.18 939.289 276.655C939.904 277.605 940.77 278.984 941.783 280.707C943.808 284.15 946.423 288.974 948.777 294.491C953.455 305.454 957.234 319.448 952.923 330.77L951.069 330.064ZM854.646 345.21C854.448 348.178 855.523 350.549 857.621 352.442C859.756 354.368 862.98 355.82 867.063 356.781C875.225 358.702 886.468 358.584 898.165 356.794C909.848 355.005 921.888 351.563 931.622 346.91C941.412 342.23 948.644 336.434 951.069 330.064L952.923 330.77C950.212 337.892 942.364 343.974 932.478 348.7C922.536 353.453 910.302 356.943 898.465 358.755C886.641 360.565 875.116 360.715 866.609 358.713C862.358 357.712 858.772 356.154 856.291 353.915C853.773 351.643 852.425 348.693 852.666 345.078L854.646 345.21ZM861.158 302.252C858.843 310.192 856.433 318.426 854.646 345.21L852.666 345.078C854.462 318.158 856.896 309.781 859.253 301.696L861.158 302.252ZM864.831 286.225C863.71 293.501 862.441 297.85 861.158 302.252L859.253 301.696C860.529 297.321 861.768 293.069 862.869 285.923L864.831 286.225ZM862.557 266.91C864.665 273.276 865.796 279.96 864.831 286.225L862.869 285.923C863.769 280.082 862.727 273.734 860.673 267.533L862.557 266.91ZM849.742 309.408L860.654 266.974L862.576 267.469L851.664 309.902L849.742 309.408ZM844.578 333.901L849.732 309.45L851.674 309.86L846.52 334.31L844.578 333.901ZM826.454 336.941L845.353 333.133L845.745 335.078L826.846 338.886L826.454 336.941ZM827.637 330.25C828.432 332.81 828.434 334.806 828.212 336.196C828.102 336.889 827.937 337.424 827.793 337.798C827.721 337.985 827.655 338.131 827.602 338.236C827.576 338.289 827.554 338.331 827.536 338.363C827.528 338.379 827.52 338.392 827.514 338.403C827.511 338.408 827.508 338.413 827.505 338.417C827.504 338.419 827.503 338.421 827.502 338.423C827.501 338.424 827.501 338.425 827.5 338.425C827.5 338.426 827.5 338.426 827.5 338.427C827.499 338.427 827.499 338.428 826.65 337.913C825.802 337.399 825.802 337.399 825.801 337.4C825.801 337.4 825.801 337.401 825.801 337.401C825.8 337.402 825.8 337.402 825.8 337.403C825.799 337.404 825.798 337.405 825.798 337.406C825.797 337.407 825.796 337.408 825.796 337.409C825.796 337.41 825.796 337.408 825.798 337.404C825.803 337.397 825.812 337.38 825.825 337.354C825.851 337.301 825.893 337.211 825.942 337.084C826.039 336.831 826.165 336.43 826.252 335.884C826.425 334.798 826.447 333.11 825.742 330.839L827.637 330.25ZM828.576 325.578C828.526 325.901 828.345 326.106 828.243 326.202C828.142 326.298 828.038 326.362 827.986 326.392C827.929 326.426 827.867 326.459 827.83 326.478C827.786 326.502 827.751 326.521 827.715 326.541C827.585 326.615 827.481 326.694 827.395 326.828C827.227 327.089 826.915 327.924 827.637 330.25L825.742 330.839C824.962 328.327 825.077 326.764 825.726 325.755C826.048 325.253 826.449 324.979 826.729 324.819C826.795 324.781 826.857 324.748 826.9 324.725C826.95 324.699 826.966 324.69 826.976 324.684C826.99 324.676 826.941 324.702 826.879 324.761C826.817 324.819 826.661 324.987 826.616 325.269L828.576 325.578ZM825.396 323.007C826.42 323.547 827.121 323.905 827.54 324.137C827.742 324.249 827.941 324.365 828.094 324.483C828.168 324.541 828.287 324.641 828.388 324.785C828.497 324.941 828.633 325.221 828.576 325.578L826.616 325.269C826.566 325.584 826.689 325.819 826.762 325.924C826.799 325.975 826.831 326.009 826.848 326.026C826.858 326.035 826.865 326.041 826.87 326.045C826.874 326.049 826.877 326.051 826.877 326.052C826.878 326.052 826.872 326.047 826.858 326.038C826.844 326.028 826.824 326.016 826.798 326C826.745 325.967 826.673 325.926 826.578 325.873C826.181 325.653 825.537 325.325 824.469 324.762L825.396 323.007ZM826.25 319.663C825.732 320.02 825.239 320.36 824.826 320.708C824.402 321.065 824.154 321.356 824.048 321.581C823.971 321.742 823.974 321.831 824.055 321.97C824.179 322.186 824.529 322.55 825.396 323.007L824.469 324.762C823.477 324.238 822.737 323.657 822.336 322.963C821.891 322.193 821.933 321.408 822.255 320.729C822.547 320.115 823.058 319.602 823.548 319.19C824.048 318.768 824.624 318.373 825.126 318.028L826.25 319.663ZM828.048 315.729C828.419 316.061 828.68 316.537 828.614 317.113C828.559 317.604 828.281 317.986 828.054 318.238C827.601 318.742 826.865 319.24 826.25 319.663L825.126 318.028C825.824 317.548 826.32 317.198 826.579 316.911C826.708 316.767 826.656 316.767 826.642 316.89C826.619 317.097 826.736 317.218 826.726 317.209L828.048 315.729ZM829.105 308.653C829.954 309.166 829.954 309.166 829.954 309.166C829.954 309.166 829.954 309.166 829.954 309.166C829.954 309.165 829.954 309.166 829.954 309.166C829.954 309.166 829.954 309.167 829.953 309.168C829.952 309.17 829.95 309.173 829.947 309.178C829.941 309.188 829.932 309.204 829.92 309.224C829.895 309.265 829.859 309.328 829.813 309.408C829.722 309.569 829.591 309.804 829.441 310.091C829.138 310.667 828.758 311.445 828.44 312.267C828.117 313.1 827.879 313.921 827.821 314.598C827.76 315.307 827.913 315.609 828.048 315.729L826.726 317.209C825.885 316.459 825.765 315.348 825.844 314.429C825.925 313.477 826.239 312.452 826.589 311.549C826.944 310.634 827.36 309.785 827.684 309.168C827.846 308.858 827.987 308.604 828.089 308.426C828.139 308.337 828.18 308.267 828.209 308.219C828.223 308.195 828.234 308.176 828.242 308.162C828.246 308.156 828.249 308.151 828.251 308.147C828.252 308.145 828.253 308.143 828.254 308.142C828.254 308.142 828.255 308.141 828.255 308.141C828.255 308.141 828.255 308.14 828.255 308.14C828.255 308.14 828.255 308.14 829.105 308.653ZM839.894 261.154L830.077 308.853L828.133 308.453L837.95 260.754L839.894 261.154ZM847.32 205.428C844.829 213.221 842.973 227.076 841.74 239.071C841.126 245.051 840.669 250.538 840.365 254.53C840.214 256.526 840.1 258.148 840.025 259.27C839.987 259.832 839.959 260.268 839.941 260.564C839.931 260.712 839.924 260.824 839.919 260.9C839.917 260.938 839.915 260.966 839.914 260.985C839.914 260.995 839.913 261.002 839.913 261.007C839.913 261.009 839.913 261.011 839.913 261.012C839.913 261.013 839.913 261.013 839.913 261.013C839.913 261.014 839.913 261.014 838.922 260.954C837.931 260.895 837.932 260.895 837.932 260.894C837.932 260.894 837.932 260.894 837.932 260.893C837.932 260.892 837.932 260.89 837.932 260.887C837.932 260.882 837.933 260.875 837.933 260.865C837.934 260.845 837.936 260.816 837.939 260.778C837.943 260.701 837.95 260.587 837.96 260.438C837.979 260.14 838.007 259.701 838.045 259.138C838.121 258.01 838.234 256.382 838.386 254.38C838.691 250.375 839.149 244.87 839.766 238.868C840.996 226.903 842.866 212.844 845.429 204.824L847.32 205.428ZM857.357 192.935C856.622 192.866 855.125 192.965 853.321 194.532C851.486 196.125 849.286 199.277 847.32 205.428L845.429 204.824C847.456 198.482 849.808 194.953 852.02 193.033C854.262 191.087 856.306 190.843 857.542 190.959L857.357 192.935Z" fill="black" mask="url(#path-99-inside-2_53_481)"/>
<path d="M898.598 168C880.372 168 865.598 153.225 865.598 135C865.598 116.775 880.372 102 898.598 102C916.823 102 931.598 116.775 931.598 135C931.598 153.225 916.823 168 898.598 168Z" fill="#171717"/>
<path d="M902.598 114.943C909.548 107.815 917.959 102.313 927.238 98.8269C933.194 96.595 939.678 95.216 945.905 96.4835C952.132 97.751 958.021 102.108 959.758 108.288C961.179 113.341 959.712 118.782 957.507 123.539C955.303 128.296 952.359 132.707 950.577 137.642C948.758 142.677 948.21 148.091 948.985 153.394C949.76 158.697 951.831 163.721 955.012 168.008C958.193 172.296 962.382 175.712 967.2 177.947C972.017 180.181 977.31 181.164 982.598 180.805C976.479 181.635 970.839 184.543 964.859 186.091C958.878 187.639 951.82 187.534 947.375 183.2C942.673 178.615 942.579 171.16 942.806 164.558C943.144 154.743 943.482 144.929 943.82 135.114C943.993 130.109 944.14 124.943 942.355 120.271C940.571 115.599 936.329 111.509 931.378 111.551C927.625 111.583 924.304 113.883 921.295 116.15C918.285 118.418 915.1 120.837 911.362 121.175C907.624 121.512 903.356 118.714 903.636 114.929L902.598 114.943Z" fill="#171717"/>
<path d="M884.137 126.377C872.751 132.611 868.566 146.91 874.79 158.315C881.015 169.72 895.292 173.911 906.678 167.677C918.064 161.443 922.25 147.144 916.025 135.739C909.8 124.334 895.523 120.143 884.137 126.377Z" fill="#FFFDF7" stroke="black" stroke-width="0.992299"/>
<path d="M861.598 145H895.84L896.192 140.097L897.947 145H903.22L903.916 135.282L907.395 145H917.598V144.519C917.59 137.753 914.892 131.267 910.095 126.483C905.299 121.699 898.795 119.008 892.012 119H887.184C880.4 119.008 873.897 121.699 869.1 126.483C864.303 131.267 861.605 137.753 861.598 144.519V145Z" fill="#171717"/>
<path d="M377 126.501C377 126.501 387.171 122.946 396 117.649C400.582 114.899 409 107.501 409 107.501L414.5 116.001L412.5 107.501L417 114.001L422.5 121.501C422.495 116.556 425.926 105.496 422.5 102C419.074 98.5045 406.57 99.0061 401.724 99.0005H398.276C393.43 99.0061 388.785 100.973 385.359 104.469C381.933 107.965 378.87 108.727 377 113.001C374.886 117.83 377 126.501 377 126.501Z" fill="#171717"/>
<path d="M913.774 164L926.459 150.931L928.598 122H900.598L901.291 122.712C910.936 132.626 921.348 147.174 913.774 164Z" fill="#171717"/>
<path d="M944.598 310C938.598 322.896 922.098 339.373 914.598 346" stroke="black" stroke-width="2.9769" stroke-linecap="round"/>
<path d="M938.598 289C926.798 311.925 894.348 341.219 879.598 353" stroke="black" stroke-width="2.9769" stroke-linecap="round"/>
<path d="M933.598 268C918.798 293.433 878.098 325.93 859.598 339" stroke="black" stroke-width="2.9769" stroke-linecap="round"/>
<path d="M935.598 239C921.598 261.925 883.098 291.219 865.598 303" stroke="black" stroke-width="2.9769" stroke-linecap="round"/>
<path d="M941.598 200C927.398 225.433 888.348 257.93 870.598 271" stroke="black" stroke-width="2.9769" stroke-linecap="round"/>
<path d="M854.598 278C850.798 281.94 840.348 286.975 835.598 289" stroke="black" stroke-width="2.9769" stroke-linecap="round"/>
<path d="M957.598 209C954.998 215.09 947.848 222.871 944.598 226" stroke="black" stroke-width="2.9769" stroke-linecap="round"/>
<path d="M963.598 226C961.398 232.806 955.348 241.502 952.598 245" stroke="black" stroke-width="2.9769" stroke-linecap="round"/>
<path d="M969.598 245C967.398 250.731 961.348 258.055 958.598 261" stroke="black" stroke-width="2.9769" stroke-linecap="round"/>
<path d="M975.598 262C973.198 269.522 966.598 279.134 963.598 283" stroke="black" stroke-width="2.9769" stroke-linecap="round"/>
<path d="M980.598 281C978.398 288.881 972.348 298.95 969.598 303" stroke="black" stroke-width="2.9769" stroke-linecap="round"/>
<path d="M983.598 307C981.598 314.881 976.098 324.95 973.598 329" stroke="black" stroke-width="2.9769" stroke-linecap="round"/>
<path d="M847.598 307C844.198 309.507 834.848 312.711 830.598 314" stroke="black" stroke-width="2.9769" stroke-linecap="round"/>
<path d="M930.598 191C912.798 216.075 863.848 248.114 841.598 261" stroke="black" stroke-width="2.9769" stroke-linecap="round"/>
<path d="M914.598 184C901.198 202.269 864.348 225.612 847.598 235" stroke="black" stroke-width="2.9769" stroke-linecap="round"/>
<path d="M890.598 184C882.798 192.239 861.348 202.766 851.598 207" stroke="black" stroke-width="2.9769" stroke-linecap="round"/>
<path d="M1053.42 96.3542C1050.36 91.0448 1046.69 85.7742 1044.52 79.9897C1044.08 78.7962 1043.76 77.7437 1043.12 76.6335C1043 76.4297 1042.54 75.6367 1042.73 76.3351C1042.99 77.2243 1043.36 78.0362 1043.6 78.9383C1044.36 81.8631 1045.51 84.6388 1045.87 87.6765C1046.18 90.2904 1046 92.8294 1045.32 95.3665C1045.11 96.1834 1044.78 96.7228 1044.78 97.6085C1044.79 98.4815 1047.08 95.7806 1047.31 95.5319C1049.83 92.7833 1052.85 90.13 1055.78 87.8434C1057.47 86.5188 1058.72 84.6758 1060.5 83.5264C1061.65 82.7818 1058.8 82.8879 1058.68 82.8732C1053.61 82.2617 1049.06 84.5536 1044.24 85.5421C1042.07 85.9858 1039.99 86.6513 1037.88 87.3204C1036.88 87.6405 1035.86 87.687 1034.85 87.9621C1034.53 88.049 1033.2 87.5996 1034.14 87.6372C1034.92 87.6682 1035.79 88.0772 1036.59 88.1884C1037.97 88.3811 1039.47 88.6244 1040.79 89.0751C1044.32 90.2805 1047.72 92.1648 1051.09 93.7753C1052.22 94.3168 1052.99 94.4862 1053.63 95.5979" stroke="#F9A825" stroke-width="1.9846" stroke-linecap="round"/>
<path d="M1161.69 143.883C1154.08 142.442 1146.95 141.519 1140.58 137.01C1139.49 136.243 1138.64 134.913 1137.52 134.31C1137.07 134.063 1136.22 132.707 1136.48 133.157C1137.3 134.579 1138.4 135.264 1139.25 136.654C1139.95 137.791 1141.38 138.37 1142.11 139.621C1143.22 141.548 1144.21 143.644 1145.54 145.429C1146.57 146.814 1147.65 147.915 1148.51 149.408C1149.26 150.719 1150.66 151.152 1151.42 152.486C1151.61 152.801 1152.07 154.002 1152.44 154.101C1153.1 154.279 1152.65 152.785 1152.72 152.458C1152.82 151.937 1152.26 151.416 1152.13 150.932C1151.96 150.262 1152.29 149.315 1152.32 148.62C1152.39 147.262 1152.43 146.119 1152.29 144.744C1152.18 143.758 1152.99 142.347 1152.66 141.46C1152.31 140.525 1152.97 140.424 1152.82 139.569C1152.69 138.88 1152.63 138.067 1152.81 137.392C1153.04 136.508 1152.44 136.015 1152.39 135.158C1152.35 134.502 1151.94 131.144 1151.69 132.514C1150.91 136.665 1148.66 140.757 1146.24 144.196C1145 145.969 1143.36 147.084 1141.7 148.388C1141.28 148.717 1138.95 149.929 1139.19 150.412C1140.06 152.151 1145.75 150.121 1146.96 149.649C1149.04 148.835 1151.57 148.418 1153.77 147.908C1155.86 147.425 1157.94 147.043 1160.03 146.579C1161.96 146.15 1163.92 144.498 1165.65 143.497" stroke="#F9A825" stroke-width="1.9846" stroke-linecap="round"/>
<path d="M1037.15 169.205C1033.66 168.451 1029.63 167.979 1026.42 166.243C1025.6 165.8 1025.28 164.779 1024.37 164.64C1022.78 164.397 1023.01 161.816 1021.41 161.572C1020.51 161.435 1016.94 159.892 1015.92 159.3C1008.12 154.744 1015.51 163.036 1017 165.315C1018.09 166.969 1023.54 178.845 1025.22 178.424C1029.93 177.243 1027.51 165.775 1028.09 162.227C1028.52 159.577 1028.85 156.218 1028.18 153.539C1027.37 150.294 1027.71 154.719 1026.93 156.655C1025.79 159.469 1024.3 162.17 1022.2 164.436C1020.57 166.195 1015.17 168.675 1014.39 170.676C1014.12 171.38 1011.31 175.317 1012.52 175.014C1015.11 174.365 1017.13 171.806 1019.69 171.002C1022.27 170.187 1024.62 169.153 1027.11 169.963C1029.85 170.856 1030.95 170.4 1033.43 168.965" stroke="#F9A825" stroke-width="1.9846" stroke-linecap="round"/>
<path d="M866.03 585.272C860.115 591.084 851.378 592.882 843.214 591.195L843.341 590.354C842.855 590.198 842.407 589.945 842.022 589.611C841.638 589.276 841.325 588.868 841.103 588.409C840.881 587.95 840.755 587.451 840.731 586.942C840.708 586.433 840.788 585.925 840.967 585.448C841.181 584.877 841.531 584.367 841.986 583.961C842.441 583.555 842.988 583.266 843.58 583.118L850.837 581.304L851.044 581.252L851.15 581.066L862.411 561.266L873.51 560.517C875.97 563.716 877.69 567.421 878.546 571.366C879.42 575.398 879.369 579.574 878.396 583.583C877.873 585.715 877.213 587.665 876.439 589.188C875.656 590.732 874.798 591.751 873.927 592.148C873.715 592.245 873.515 592.239 873.281 592.131C873.027 592.013 872.741 591.773 872.424 591.407C871.799 590.681 871.183 589.611 870.547 588.508L870.521 588.462C869.896 587.378 869.242 586.246 868.576 585.547C868.244 585.199 867.849 584.894 867.392 584.804C866.891 584.705 866.426 584.883 866.03 585.272Z" fill="#F9F2E7" stroke="black"/>
<path d="M923.03 591.057C917.115 596.869 908.378 598.668 900.214 596.98L900.341 596.139C899.855 595.983 899.407 595.731 899.022 595.396C898.638 595.062 898.325 594.653 898.103 594.195C897.881 593.736 897.755 593.237 897.731 592.728C897.708 592.219 897.788 591.711 897.967 591.234C898.181 590.663 898.531 590.153 898.986 589.747C899.441 589.341 899.988 589.051 900.58 588.903L907.837 587.09L908.044 587.038L908.15 586.852L919.421 567.036L931.269 565.537L931.414 565.774L931.416 565.776C933.779 569.584 935.303 573.852 935.885 578.295C936.468 582.737 936.096 587.253 934.794 591.54C934.285 593.171 933.689 594.613 933.024 595.732C932.351 596.863 931.64 597.609 930.927 597.934C930.715 598.031 930.515 598.025 930.281 597.916C930.027 597.798 929.741 597.559 929.425 597.192C928.799 596.467 928.183 595.397 927.547 594.293L927.521 594.248C926.896 593.164 926.242 592.031 925.576 591.333C925.244 590.985 924.849 590.68 924.392 590.589C923.891 590.49 923.426 590.668 923.03 591.057Z" fill="#F9F2E7" stroke="black"/>
</svg>
