<svg width="55" height="55" viewBox="0 0 55 55" fill="none" xmlns="http://www.w3.org/2000/svg">
<path d="M50.4168 17.9208C50.4279 17.7759 50.4279 17.6303 50.4168 17.4854L45.8335 6.02707C45.6545 5.57414 45.3358 5.19001 44.9238 4.93041C44.5117 4.6708 44.0277 4.54923 43.5418 4.58332H11.4585C10.9995 4.58288 10.551 4.72026 10.171 4.97767C9.79101 5.23509 9.49707 5.60067 9.32725 6.02707L4.74391 17.4854C4.73287 17.6303 4.73287 17.7759 4.74391 17.9208C4.66776 18.0484 4.61354 18.1878 4.5835 18.3333C4.609 19.9174 5.04464 21.4679 5.84791 22.8334C6.65118 24.199 7.79467 25.333 9.16683 26.125V48.125C9.16683 48.7328 9.40827 49.3157 9.83804 49.7454C10.2678 50.1752 10.8507 50.4167 11.4585 50.4167H43.5418C44.1496 50.4167 44.7325 50.1752 45.1623 49.7454C45.5921 49.3157 45.8335 48.7328 45.8335 48.125V26.2167C47.2189 25.4168 48.3709 24.2683 49.175 22.8853C49.979 21.5024 50.4072 19.933 50.4168 18.3333C50.4383 18.1967 50.4383 18.0575 50.4168 17.9208ZM29.7918 45.8333H25.2085V36.6667H29.7918V45.8333ZM41.2502 45.8333H34.3752V34.375C34.3752 33.7672 34.1337 33.1843 33.7039 32.7545C33.2742 32.3248 32.6913 32.0833 32.0835 32.0833H22.9168C22.309 32.0833 21.7261 32.3248 21.2964 32.7545C20.8666 33.1843 20.6252 33.7672 20.6252 34.375V45.8333H13.7502V27.5C15.0552 27.4926 16.3436 27.2067 17.5292 26.6613C18.7149 26.1159 19.7704 25.3236 20.6252 24.3375C21.4854 25.3129 22.5433 26.0941 23.7286 26.6292C24.914 27.1642 26.1996 27.441 27.5002 27.441C28.8007 27.441 30.0863 27.1642 31.2717 26.6292C32.457 26.0941 33.5149 25.3129 34.3752 24.3375C35.2299 25.3236 36.2855 26.1159 37.4711 26.6613C38.6567 27.2067 39.9451 27.4926 41.2502 27.5V45.8333ZM41.2502 22.9167C40.0346 22.9167 38.8688 22.4338 38.0093 21.5742C37.1497 20.7147 36.6668 19.5489 36.6668 18.3333C36.6668 17.7255 36.4254 17.1426 35.9956 16.7129C35.5658 16.2831 34.9829 16.0417 34.3752 16.0417C33.7674 16.0417 33.1845 16.2831 32.7547 16.7129C32.3249 17.1426 32.0835 17.7255 32.0835 18.3333C32.0835 19.5489 31.6006 20.7147 30.7411 21.5742C29.8815 22.4338 28.7157 22.9167 27.5002 22.9167C26.2846 22.9167 25.1188 22.4338 24.2593 21.5742C23.3997 20.7147 22.9168 19.5489 22.9168 18.3333C22.9168 17.7255 22.6754 17.1426 22.2456 16.7129C21.8158 16.2831 21.233 16.0417 20.6252 16.0417C20.0174 16.0417 19.4345 16.2831 19.0047 16.7129C18.5749 17.1426 18.3335 17.7255 18.3335 18.3333C18.3561 18.9352 18.2599 19.5357 18.0504 20.1004C17.8409 20.6651 17.5222 21.183 17.1126 21.6246C16.703 22.0661 16.2104 22.4227 15.6629 22.6739C15.1155 22.9251 14.5239 23.066 13.922 23.0885C12.7065 23.1341 11.5226 22.6949 10.6308 21.8676C10.1892 21.458 9.83267 20.9654 9.58149 20.418C9.3303 19.8705 9.1894 19.279 9.16683 18.6771L13.0168 9.16665H41.9835L45.8335 18.6771C45.7466 19.8321 45.2257 20.9114 44.3753 21.698C43.525 22.4845 42.4085 22.9199 41.2502 22.9167Z" fill="#2F7FED"/>
</svg>
