<svg width="46" height="43" viewBox="0 0 46 43" fill="none" xmlns="http://www.w3.org/2000/svg">
<path d="M41.6441 4.23746C39.2111 1.80372 35.9854 0.324037 32.5536 0.0674959C29.1219 -0.189045 25.712 0.794597 22.9442 2.83954C20.0284 0.670791 16.3991 -0.312622 12.7873 0.0873332C9.17547 0.487289 5.84933 2.2409 3.47868 4.99505C1.10802 7.74919 -0.131045 11.2993 0.0109895 14.9304C0.153024 18.5615 1.66561 22.004 4.24415 24.5645L21.3171 41.6375C21.5301 41.8522 21.7836 42.0227 22.0628 42.1391C22.3421 42.2554 22.6416 42.3153 22.9442 42.3153C23.2467 42.3153 23.5462 42.2554 23.8255 42.1391C24.1047 42.0227 24.3582 41.8522 24.5712 41.6375L41.6441 24.5645C42.9794 23.2302 44.0386 21.6457 44.7613 19.9018C45.484 18.1579 45.856 16.2887 45.856 14.401C45.856 12.5133 45.484 10.6441 44.7613 8.90016C44.0386 7.15625 42.9794 5.57184 41.6441 4.23746ZM38.4129 21.3333L22.9442 36.7791L7.4754 21.3333C6.11226 19.9645 5.18368 18.2236 4.80614 16.3291C4.4286 14.4345 4.61891 12.4707 5.35321 10.6839C6.08751 8.89711 7.33309 7.36694 8.93369 6.28534C10.5343 5.20374 12.4187 4.61888 14.3504 4.60412C16.9311 4.61044 19.4038 5.64072 21.2254 7.46871C21.4384 7.6835 21.6919 7.85399 21.9712 7.97033C22.2504 8.08668 22.55 8.14658 22.8525 8.14658C23.155 8.14658 23.4545 8.08668 23.7338 7.97033C24.0131 7.85399 24.2665 7.6835 24.4796 7.46871C26.3549 5.84364 28.7776 4.99175 31.2573 5.08543C33.737 5.17911 36.0885 6.21138 37.8358 7.9733C39.5832 9.73523 40.5959 12.0952 40.669 14.5756C40.7421 17.056 39.8701 19.4715 38.2296 21.3333H38.4129Z" fill="#2F7FED"/>
</svg>
