<svg width="55" height="55" viewBox="0 0 55 55" fill="none" xmlns="http://www.w3.org/2000/svg">
<path d="M38.5917 26.6521C39.5096 26.6635 40.4205 26.4909 41.2707 26.1445C42.1209 25.7982 42.893 25.2851 43.5417 24.6355L50.0271 18.15C50.4539 17.7207 50.6935 17.1398 50.6935 16.5344C50.6935 15.929 50.4539 15.3482 50.0271 14.9188C49.8141 14.704 49.5606 14.5335 49.2814 14.4172C49.0021 14.3008 48.7026 14.2409 48.4 14.2409C48.0975 14.2409 47.798 14.3008 47.5187 14.4172C47.2395 14.5335 46.986 14.704 46.7729 14.9188L40.2188 21.3813C40.0057 21.5961 39.7523 21.7666 39.473 21.8829C39.1938 21.9993 38.8942 22.0592 38.5917 22.0592C38.2892 22.0592 37.9896 21.9993 37.7104 21.8829C37.4311 21.7666 37.1777 21.5961 36.9646 21.3813L45.0771 13.2917C45.2908 13.078 45.4603 12.8244 45.5759 12.5452C45.6916 12.266 45.7511 11.9668 45.7511 11.6646C45.7511 11.3624 45.6916 11.0632 45.5759 10.7841C45.4603 10.5049 45.2908 10.2512 45.0771 10.0375C44.8634 9.82387 44.6098 9.65438 44.3306 9.53874C44.0514 9.4231 43.7522 9.36358 43.45 9.36358C43.1479 9.36358 42.8486 9.4231 42.5695 9.53874C42.2903 9.65438 42.0366 9.82387 41.8229 10.0375L33.7334 18.15C33.3065 17.7207 33.067 17.1398 33.067 16.5344C33.067 15.929 33.3065 15.3482 33.7334 14.9188L40.2188 8.43338C40.4325 8.2197 40.602 7.96604 40.7176 7.68686C40.8332 7.40769 40.8927 7.10847 40.8927 6.80629C40.8927 6.50412 40.8332 6.2049 40.7176 5.92572C40.602 5.64655 40.4325 5.39288 40.2188 5.17921C40.0051 4.96554 39.7514 4.79604 39.4723 4.68041C39.1931 4.56477 38.8939 4.50525 38.5917 4.50525C38.2895 4.50525 37.9903 4.56477 37.7111 4.68041C37.432 4.79604 37.1783 4.96554 36.9646 5.17921L30.4792 11.6646C29.1917 12.9537 28.4686 14.7011 28.4686 16.523C28.4686 18.3448 29.1917 20.0922 30.4792 21.3813L27.5 24.3375L8.54795 5.31671L8.31878 5.17921C8.20163 5.077 8.07044 4.99211 7.9292 4.92713L7.5167 4.76671L7.2417 4.58338H7.08128H6.62295C6.48632 4.56153 6.34708 4.56153 6.21045 4.58338C6.07172 4.63387 5.94062 4.70328 5.82087 4.78963L5.4542 5.01879H5.29378L5.15628 5.24796C5.05929 5.36896 4.97483 5.49949 4.9042 5.63754C4.83708 5.77728 4.78337 5.92308 4.74378 6.07296C4.74378 6.07296 4.74378 6.23338 4.74378 6.32504C4.18768 10.2012 4.54223 14.1536 5.77933 17.8689C7.01644 21.5842 9.10207 24.9602 11.8709 27.7292L17.9209 33.7563L5.52295 46.1313C5.30815 46.3443 5.13767 46.5978 5.02132 46.8771C4.90498 47.1563 4.84508 47.4559 4.84508 47.7584C4.84508 48.0609 4.90498 48.3604 5.02132 48.6397C5.13767 48.919 5.30815 49.1724 5.52295 49.3855C5.73708 49.5979 5.99104 49.7659 6.27025 49.8799C6.54946 49.994 6.84843 50.0518 7.15003 50.05C7.45163 50.0518 7.75061 49.994 8.02982 49.8799C8.30903 49.7659 8.56298 49.5979 8.77712 49.3855L22.6875 35.6813L29.1729 29.1959L33.7563 24.6125C35.035 25.905 36.7736 26.6384 38.5917 26.6521ZM21.0604 30.823L15.0334 24.773C11.7298 21.4242 9.66135 17.0529 9.1667 12.375L24.3146 27.5L21.0604 30.823ZM35.3605 32.1292C34.9289 31.6946 34.3424 31.4493 33.73 31.4472C33.1176 31.445 32.5294 31.6862 32.0948 32.1178C31.6603 32.5493 31.4149 33.1358 31.4128 33.7482C31.4106 34.3606 31.6518 34.9488 32.0834 35.3834L46.5209 49.8209C46.9586 50.2192 47.5334 50.4327 48.125 50.4167C48.4266 50.4185 48.7256 50.3607 49.0048 50.2466C49.284 50.1326 49.538 49.9645 49.7521 49.7521C49.9669 49.5391 50.1374 49.2856 50.2537 49.0064C50.3701 48.7271 50.43 48.4276 50.43 48.125C50.43 47.8225 50.3701 47.523 50.2537 47.2437C50.1374 46.9645 49.9669 46.711 49.7521 46.498L35.3605 32.1292Z" fill="#2F7FED"/>
</svg>
