<svg width="160" height="40" viewBox="0 0 160 40" fill="none" xmlns="http://www.w3.org/2000/svg">
<path d="M12.16 11.249C14.08 11.249 15.8294 11.4621 17.408 11.8455C18.9867 12.229 20.352 12.8255 21.4614 13.6351C22.5707 14.4447 23.424 15.4673 24.064 16.6603C24.6614 17.896 24.96 19.3447 24.96 21.0064V32.9369C24.96 33.8742 24.704 34.5986 24.192 35.1951C23.68 35.7916 23.0827 36.3029 22.3574 36.729C20.0534 38.1351 16.8107 38.8168 12.5867 38.8168C10.7094 38.8168 9.00271 38.6464 7.50938 38.2629C6.01605 37.9221 4.69338 37.3682 3.62671 36.6438C2.56005 35.9195 1.70671 35.0247 1.10938 33.9168C0.512046 32.809 0.213379 31.5308 0.213379 30.0821C0.213379 27.6108 0.938712 25.736 2.38938 24.4151C3.84005 23.0942 6.10138 22.2847 9.17338 21.9438L16.1707 21.1769V20.8786C16.1707 19.856 15.7014 19.1316 14.8054 18.6629C13.9094 18.2368 12.5867 17.9812 10.88 17.9812C9.51471 17.9812 8.19205 18.109 6.91205 18.4073C5.63205 18.7055 4.48005 19.0464 3.45605 19.4725C2.98671 19.1316 2.60271 18.6629 2.26138 18.0238C1.92005 17.3847 1.79205 16.7029 1.79205 15.9786C1.79205 15.0412 2.00538 14.3168 2.47471 13.7629C2.90138 13.209 3.58405 12.7403 4.52271 12.3568C5.54671 11.9734 6.78405 11.6751 8.19205 11.5047C9.60005 11.3342 10.9227 11.249 12.16 11.249ZM12.5867 32.1699C13.184 32.1699 13.8667 32.1273 14.592 31.9995C15.3174 31.8716 15.872 31.7012 16.2134 31.4882V27.2273L12.3734 27.5682C11.392 27.6534 10.5387 27.8664 9.89871 28.2073C9.25871 28.5482 8.91738 29.1021 8.91738 29.8264C8.91738 30.5508 9.17338 31.1047 9.72805 31.5734C10.3254 31.9568 11.264 32.1699 12.5867 32.1699Z" fill="black"/>
<path d="M47.1894 37.2399C46.6774 37.6234 45.952 37.9643 45.0134 38.2199C44.032 38.4756 42.9654 38.6034 41.7707 38.6034C40.3627 38.6034 39.168 38.433 38.1867 38.0495C37.2054 37.666 36.48 37.1121 36.096 36.3451C35.7547 35.7486 35.4134 34.8964 34.944 33.8312C34.5174 32.766 34.048 31.5304 33.536 30.2095C33.024 28.8886 32.512 27.4399 32 25.906C31.4454 24.3721 30.976 22.8808 30.464 21.3895C29.952 19.8982 29.568 18.4495 29.1414 17.086C28.7574 15.6799 28.416 14.4869 28.16 13.4217C28.672 12.9104 29.312 12.4843 30.1654 12.1008C31.0187 11.7173 31.9147 11.5469 32.896 11.5469C34.1334 11.5469 35.1574 11.8025 35.968 12.3138C36.7787 12.8251 37.376 13.8051 37.76 15.2112L39.8507 23.3495C40.2347 24.9686 40.6187 26.3747 40.96 27.6956C41.3014 28.9738 41.6 29.9964 41.7707 30.7208H42.0267C42.7094 28.079 43.4347 25.1817 44.16 21.986C44.8854 18.7904 45.568 15.6373 46.208 12.5695C46.8054 12.2286 47.488 12.0156 48.256 11.8025C49.024 11.6321 49.7494 11.5469 50.4747 11.5469C51.712 11.5469 52.7787 11.8025 53.632 12.3564C54.4854 12.9104 54.912 13.8051 54.912 15.126C54.912 15.6799 54.784 16.5321 54.528 17.5973C54.272 18.6625 53.9307 19.8982 53.504 21.2617C53.0774 22.6251 52.608 24.0738 52.0534 25.6077C51.4987 27.1417 50.944 28.633 50.3894 30.0817C49.8347 31.5304 49.28 32.8938 48.7254 34.1721C48.128 35.3651 47.616 36.4304 47.1894 37.2399Z" fill="black"/>
<path d="M72.3627 38.7739C70.272 38.7739 68.3093 38.4756 66.5173 37.8791C64.7253 37.2826 63.1466 36.4304 61.824 35.2374C60.5013 34.0443 59.4346 32.5956 58.6666 30.8061C57.8986 29.0165 57.5146 26.9713 57.5146 24.5852C57.5146 22.2417 57.8986 20.2391 58.6666 18.5347C59.4346 16.8304 60.416 15.4669 61.696 14.3591C62.9333 13.2939 64.384 12.4843 65.9627 11.973C67.584 11.4617 69.2053 11.2061 70.8693 11.2061C72.7467 11.2061 74.4533 11.5043 76.032 12.0582C77.568 12.6121 78.9333 13.4217 80.0427 14.4017C81.152 15.3817 82.048 16.5747 82.6453 17.9808C83.2853 19.3869 83.584 20.8782 83.584 22.4974C83.584 23.6904 83.2426 24.6278 82.56 25.2669C81.8773 25.9061 80.9386 26.3321 79.744 26.5026L66.56 28.4626C66.944 29.6556 67.7547 30.5078 68.9493 31.1043C70.144 31.7008 71.552 31.9991 73.1306 31.9991C74.5813 31.9991 75.9467 31.8287 77.2693 31.4452C78.5493 31.0617 79.616 30.6356 80.4266 30.1243C80.9813 30.4652 81.4933 30.9765 81.8773 31.6156C82.2613 32.2547 82.4747 32.9365 82.4747 33.6608C82.4747 35.28 81.7066 36.4304 80.2133 37.24C79.0613 37.8365 77.7813 38.2626 76.3733 38.4756C74.9653 38.6887 73.6 38.7739 72.3627 38.7739ZM70.8693 17.853C70.016 17.853 69.2906 17.9808 68.6506 18.2791C68.0106 18.5774 67.5413 18.9182 67.1146 19.3869C66.7306 19.813 66.432 20.3243 66.2186 20.8782C66.0053 21.4321 65.92 21.9861 65.8773 22.54L75.008 21.0487C74.88 20.3243 74.496 19.6426 73.8133 18.9182C73.1733 18.1939 72.192 17.853 70.8693 17.853Z" fill="black"/>
<path d="M104.363 21.5174C104.363 20.4095 104.064 19.6 103.424 19.0887C102.784 18.5774 101.973 18.3217 100.907 18.3217C100.181 18.3217 99.4988 18.4069 98.8161 18.5774C98.1334 18.7478 97.5361 19.0034 97.0241 19.3869V37.8791C96.6828 38.0069 96.1281 38.0921 95.3601 38.22C94.5921 38.3478 93.8241 38.3904 92.9708 38.3904C92.2028 38.3904 91.4774 38.3478 90.8801 38.22C90.2401 38.0921 89.7281 37.8791 89.3014 37.5808C88.8748 37.2826 88.5334 36.8139 88.3201 36.26C88.1068 35.706 87.9788 34.9817 87.9788 34.0869V18.1087C87.9788 17.1287 88.1921 16.3617 88.5761 15.7652C89.0028 15.1687 89.5574 14.6147 90.2401 14.1034C91.4348 13.2513 92.9708 12.5695 94.8054 12.0156C96.6401 11.4617 98.6881 11.2061 100.907 11.2061C104.917 11.2061 108.032 12.1008 110.208 13.8478C112.384 15.5947 113.451 18.0661 113.451 21.1765V37.8365C113.109 37.9643 112.555 38.0495 111.787 38.1774C111.019 38.3052 110.251 38.3478 109.397 38.3478C108.629 38.3478 107.904 38.3052 107.307 38.1774C106.667 38.0495 106.155 37.8365 105.728 37.5382C105.301 37.24 104.96 36.7713 104.747 36.2174C104.533 35.6634 104.405 34.9391 104.405 34.0443V21.5174H104.363Z" fill="black"/>
<path d="M117.931 24.9693C117.931 22.6258 118.272 20.5806 118.997 18.8762C119.723 17.1719 120.704 15.7232 121.941 14.5728C123.221 13.4223 124.672 12.6128 126.379 12.0588C128.085 11.5049 129.877 11.2493 131.84 11.2493C132.565 11.2493 133.248 11.2919 133.931 11.4197C134.613 11.5475 135.168 11.6754 135.595 11.8884V3.23884C135.936 3.11102 136.533 3.0258 137.301 2.89797C138.069 2.77015 138.88 2.72754 139.691 2.72754C140.459 2.72754 141.184 2.77015 141.781 2.89797C142.421 3.0258 142.933 3.23884 143.36 3.5371C143.787 3.83537 144.128 4.30406 144.341 4.85797C144.555 5.41189 144.683 6.13623 144.683 7.03102V32.298C144.683 33.9597 143.915 35.2806 142.336 36.3032C141.312 36.9849 139.989 37.5814 138.325 38.0928C136.704 38.6041 134.784 38.8597 132.651 38.8597C130.347 38.8597 128.256 38.5188 126.421 37.8797C124.587 37.2406 123.051 36.3032 121.771 35.1101C120.491 33.9171 119.552 32.4684 118.869 30.7641C118.229 29.0171 117.931 27.0997 117.931 24.9693ZM133.077 18.3223C131.157 18.3223 129.664 18.8762 128.64 19.9841C127.616 21.0919 127.104 22.7536 127.104 25.0119C127.104 27.2275 127.573 28.8893 128.555 29.9971C129.536 31.1049 130.901 31.6588 132.736 31.6588C133.376 31.6588 133.973 31.5736 134.485 31.3606C134.997 31.1475 135.381 30.9345 135.68 30.6788V18.9614C134.912 18.5354 134.059 18.3223 133.077 18.3223Z" fill="black"/>
<path d="M150.059 4.85775C150.059 3.49427 150.528 2.38645 151.424 1.44906C152.32 0.511664 153.515 0.0429688 155.008 0.0429688C156.501 0.0429688 157.696 0.511664 158.592 1.44906C159.488 2.38645 159.957 3.49427 159.957 4.85775C159.957 6.22123 159.488 7.32906 158.592 8.26645C157.696 9.20384 156.501 9.67253 155.008 9.67253C153.515 9.67253 152.32 9.20384 151.424 8.26645C150.528 7.32906 150.059 6.17862 150.059 4.85775ZM159.573 37.8795C159.189 37.9647 158.592 38.0499 157.824 38.1778C157.056 38.3056 156.288 38.3482 155.52 38.3482C154.752 38.3482 154.027 38.3056 153.429 38.1778C152.789 38.0499 152.277 37.8369 151.851 37.5386C151.424 37.2404 151.083 36.7717 150.869 36.2178C150.656 35.6638 150.528 34.9395 150.528 34.0447V12.3569C150.912 12.2717 151.509 12.1864 152.277 12.0586C153.045 11.9308 153.813 11.8882 154.581 11.8882C155.349 11.8882 156.075 11.9308 156.672 12.0586C157.312 12.1864 157.824 12.3995 158.251 12.6978C158.677 12.996 159.019 13.4647 159.232 14.0186C159.445 14.5725 159.573 15.2969 159.573 16.1917V37.8795Z" fill="black"/>
</svg>
