<svg width="45" height="46" viewBox="0 0 45 46" fill="none" xmlns="http://www.w3.org/2000/svg">
<path d="M27 13.8H29.25C29.8467 13.8 30.419 13.5577 30.841 13.1263C31.2629 12.695 31.5 12.11 31.5 11.5C31.5 10.89 31.2629 10.305 30.841 9.87365C30.419 9.44232 29.8467 9.2 29.25 9.2H27C26.4033 9.2 25.831 9.44232 25.409 9.87365C24.9871 10.305 24.75 10.89 24.75 11.5C24.75 12.11 24.9871 12.695 25.409 13.1263C25.831 13.5577 26.4033 13.8 27 13.8ZM27 23H29.25C29.8467 23 30.419 22.7577 30.841 22.3263C31.2629 21.895 31.5 21.31 31.5 20.7C31.5 20.09 31.2629 19.505 30.841 19.0737C30.419 18.6423 29.8467 18.4 29.25 18.4H27C26.4033 18.4 25.831 18.6423 25.409 19.0737C24.9871 19.505 24.75 20.09 24.75 20.7C24.75 21.31 24.9871 21.895 25.409 22.3263C25.831 22.7577 26.4033 23 27 23ZM15.75 13.8H18C18.5967 13.8 19.169 13.5577 19.591 13.1263C20.0129 12.695 20.25 12.11 20.25 11.5C20.25 10.89 20.0129 10.305 19.591 9.87365C19.169 9.44232 18.5967 9.2 18 9.2H15.75C15.1533 9.2 14.581 9.44232 14.159 9.87365C13.7371 10.305 13.5 10.89 13.5 11.5C13.5 12.11 13.7371 12.695 14.159 13.1263C14.581 13.5577 15.1533 13.8 15.75 13.8ZM15.75 23H18C18.5967 23 19.169 22.7577 19.591 22.3263C20.0129 21.895 20.25 21.31 20.25 20.7C20.25 20.09 20.0129 19.505 19.591 19.0737C19.169 18.6423 18.5967 18.4 18 18.4H15.75C15.1533 18.4 14.581 18.6423 14.159 19.0737C13.7371 19.505 13.5 20.09 13.5 20.7C13.5 21.31 13.7371 21.895 14.159 22.3263C14.581 22.7577 15.1533 23 15.75 23ZM42.75 41.4H40.5V2.3C40.5 1.69 40.2629 1.10499 39.841 0.673654C39.419 0.242321 38.8467 0 38.25 0H6.75C6.15326 0 5.58097 0.242321 5.15901 0.673654C4.73705 1.10499 4.5 1.69 4.5 2.3V41.4H2.25C1.65326 41.4 1.08097 41.6423 0.65901 42.0737C0.237053 42.505 0 43.09 0 43.7C0 44.31 0.237053 44.895 0.65901 45.3263C1.08097 45.7577 1.65326 46 2.25 46H42.75C43.3467 46 43.919 45.7577 44.341 45.3263C44.7629 44.895 45 44.31 45 43.7C45 43.09 44.7629 42.505 44.341 42.0737C43.919 41.6423 43.3467 41.4 42.75 41.4ZM24.75 41.4H20.25V32.2H24.75V41.4ZM36 41.4H29.25V29.9C29.25 29.29 29.0129 28.705 28.591 28.2737C28.169 27.8423 27.5967 27.6 27 27.6H18C17.4033 27.6 16.831 27.8423 16.409 28.2737C15.9871 28.705 15.75 29.29 15.75 29.9V41.4H9V4.6H36V41.4Z" fill="#2F7FED"/>
</svg>
