<svg width="100" height="100" viewBox="0 0 100 100" fill="none" xmlns="http://www.w3.org/2000/svg">
<path d="M31.2499 91.6666C36.2945 91.6658 41.1978 90.0006 45.1996 86.9291C49.2013 83.8576 52.0777 79.5515 53.3828 74.6786C54.6878 69.8058 54.3486 64.6385 52.4177 59.9781C50.4867 55.3177 47.072 51.4246 42.7031 48.9026C38.3341 46.3807 33.2551 45.3708 28.2537 46.0295C23.2523 46.6883 18.608 48.9789 15.0411 52.5461C11.4742 56.1133 9.18397 60.7577 8.52562 65.7592C7.86727 70.7606 8.87758 75.8395 11.3999 80.2083L9.47904 90.5208L19.7915 88.6041C23.2741 90.6175 27.2272 91.6741 31.2499 91.6666Z" stroke="#1C1C1C" stroke-width="9.16667" stroke-linecap="round" stroke-linejoin="round"/>
<path d="M63.6749 74.5751C67.6644 73.933 71.5026 72.566 74.9999 70.5417L89.9999 73.3334L87.2082 58.3334C89.6593 54.0812 91.1412 49.3403 91.548 44.4491C91.9548 39.5579 91.2765 34.6373 89.5614 30.0386C87.8464 25.4399 85.137 21.2767 81.6267 17.8464C78.1165 14.4161 73.8921 11.8032 69.2551 10.1945C64.6182 8.58575 59.6832 8.02085 54.8027 8.54011C49.9222 9.05938 45.2166 10.65 41.022 13.1984C36.8274 15.7468 33.2473 19.19 30.5374 23.2821C27.8275 27.3743 26.0547 32.0143 25.3457 36.8709" stroke="#1C1C1C" stroke-width="9.16667" stroke-linecap="round" stroke-linejoin="round"/>
</svg>
